<svg width="16" height="16" viewBox="0 0 16 16" fill="none" xmlns="http://www.w3.org/2000/svg">
<path d="M8 0.5C12.1415 0.5 15.5 3.4835 15.5 7.16675C15.4994 8.27166 15.0602 9.33112 14.2788 10.1123C13.4975 10.8936 12.4379 11.3326 11.333 11.333H9.8585C9.167 11.333 8.60825 11.8918 8.60825 12.5833C8.60825 12.8998 8.7335 13.1915 8.92475 13.4083C9.125 13.6333 9.25025 13.925 9.25025 14.2498C9.25025 14.942 8.675 15.5 8 15.5C3.8585 15.5 0.5 12.1415 0.5 8C0.5 3.8585 3.8585 0.5 8 0.5ZM7.10825 12.5833C7.10795 12.222 7.17889 11.8642 7.317 11.5304C7.45511 11.1966 7.65768 10.8933 7.91312 10.6379C8.16856 10.3824 8.47187 10.1799 8.80567 10.0417C9.13948 9.90364 9.49725 9.8327 9.8585 9.833H11.333C12.04 9.8326 12.7179 9.5517 13.2179 9.05195C13.7179 8.5522 13.9992 7.87445 14 7.1675C14 4.35425 11.351 2 8 2C6.45168 1.99859 4.96276 2.59577 3.84453 3.66669C2.72631 4.73761 2.06537 6.19935 1.99989 7.74628C1.93442 9.29321 2.46949 10.8056 3.49322 11.9671C4.51696 13.1287 5.9501 13.8496 7.493 13.979C7.24188 13.557 7.10898 13.0751 7.10825 12.584V12.5833ZM4.625 8C4.32663 8 4.04048 7.88147 3.8295 7.6705C3.61853 7.45952 3.5 7.17337 3.5 6.875C3.5 6.57663 3.61853 6.29048 3.8295 6.0795C4.04048 5.86853 4.32663 5.75 4.625 5.75C4.92337 5.75 5.20952 5.86853 5.4205 6.0795C5.63147 6.29048 5.75 6.57663 5.75 6.875C5.75 7.17337 5.63147 7.45952 5.4205 7.6705C5.20952 7.88147 4.92337 8 4.625 8V8ZM11.375 8C11.0766 8 10.7905 7.88147 10.5795 7.6705C10.3685 7.45952 10.25 7.17337 10.25 6.875C10.25 6.57663 10.3685 6.29048 10.5795 6.0795C10.7905 5.86853 11.0766 5.75 11.375 5.75C11.6734 5.75 11.9595 5.86853 12.1705 6.0795C12.3815 6.29048 12.5 6.57663 12.5 6.875C12.5 7.17337 12.3815 7.45952 12.1705 7.6705C11.9595 7.88147 11.6734 8 11.375 8ZM8 5.75C7.70163 5.75 7.41548 5.63147 7.2045 5.4205C6.99353 5.20952 6.875 4.92337 6.875 4.625C6.875 4.32663 6.99353 4.04048 7.2045 3.8295C7.41548 3.61853 7.70163 3.5 8 3.5C8.29837 3.5 8.58452 3.61853 8.7955 3.8295C9.00647 4.04048 9.125 4.32663 9.125 4.625C9.125 4.92337 9.00647 5.20952 8.7955 5.4205C8.58452 5.63147 8.29837 5.75 8 5.75Z" fill="#2D3748"/>
</svg>
