<svg width="557" height="357" viewBox="0 0 557 357" fill="none" xmlns="http://www.w3.org/2000/svg">
<path d="M3.02519 2.82882C4.2675 3.84985 4.44451 5.66051 3.42348 6.90281C2.40244 8.14512 0.591787 8.32213 -0.650517 7.3011C-1.89282 6.28006 -2.06984 4.46941 -1.0488 3.2271C-0.0277686 1.9848 1.78289 1.80778 3.02519 2.82882Z" fill="#F178B6" fill-opacity="0.3"/>
<path d="M7.03124 48.9998C8.27354 50.0208 8.45055 51.8315 7.42952 53.0738C6.40849 54.3161 4.59783 54.4931 3.35553 53.4721C2.11322 52.4511 1.93621 50.6404 2.95724 49.3981C3.97827 48.1558 5.78893 47.9788 7.03124 48.9998Z" fill="#F178B6" fill-opacity="0.3"/>
<path d="M28.0646 23.4083C29.3069 24.4294 29.4839 26.24 28.4628 27.4823C27.4418 28.7246 25.6312 28.9017 24.3889 27.8806C23.1465 26.8596 22.9695 25.0489 23.9906 23.8066C25.0116 22.5643 26.8223 22.3873 28.0646 23.4083Z" fill="#F178B6" fill-opacity="0.3"/>
<path d="M11.0372 95.1708C12.2795 96.1918 12.4565 98.0024 11.4354 99.2447C10.4144 100.487 8.60375 100.664 7.36145 99.643C6.11914 98.622 5.94213 96.8113 6.96316 95.569C7.9615 94.3543 9.82246 94.1724 11.0372 95.1708Z" fill="#F178B6" fill-opacity="0.3"/>
<path d="M32.0705 69.5793C33.3128 70.6003 33.4899 72.411 32.4688 73.6533C31.4478 74.8956 29.6371 75.0726 28.3948 74.0515C27.1525 73.0305 26.9755 71.2198 27.9965 69.9775C29.0176 68.7352 30.8558 68.5809 32.0705 69.5793Z" fill="#F178B6" fill-opacity="0.3"/>
<path d="M53.1038 43.9878C54.3461 45.0088 54.5231 46.8195 53.5021 48.0618C52.4811 49.3041 50.6704 49.4811 49.4281 48.4601C48.1858 47.439 48.0088 45.6284 49.0298 44.3861C50.0508 43.1438 51.8891 42.9895 53.1038 43.9878Z" fill="#F178B6" fill-opacity="0.3"/>
<path d="M15.0206 141.369C16.2629 142.39 16.4399 144.201 15.4188 145.443C14.3978 146.686 12.5871 146.863 11.3448 145.842C10.1025 144.821 9.92553 143.01 10.9466 141.768C11.9952 140.548 13.8059 140.371 15.0206 141.369Z" fill="#F178B6" fill-opacity="0.3"/>
<path d="M36.0765 115.75C37.3188 116.771 37.4958 118.582 36.4748 119.824C35.4538 121.067 33.6431 121.244 32.4008 120.223C31.1585 119.202 30.9815 117.391 32.0025 116.149C33.0285 114.957 34.8618 114.752 36.0765 115.75Z" fill="#F178B6" fill-opacity="0.3"/>
<path d="M57.1098 90.1588C58.3522 91.1798 58.5292 92.9904 57.5081 94.2328C56.4871 95.4751 54.6764 95.6521 53.4341 94.631C52.1918 93.61 52.0148 91.7993 53.0359 90.557C54.0845 89.3374 55.8952 89.1604 57.1098 90.1588Z" fill="#F178B6" fill-opacity="0.3"/>
<path d="M78.1432 64.5673C79.3855 65.5884 79.5625 67.399 78.5415 68.6413C77.5204 69.8836 75.7098 70.0606 74.4675 69.0396C73.2252 68.0186 73.0481 66.2079 74.0692 64.9656C75.1178 63.746 76.9285 63.569 78.1432 64.5673Z" fill="#F178B6" fill-opacity="0.3"/>
<path d="M-2.00662 213.132C-0.764313 214.153 -0.587298 215.963 -1.60833 217.206C-2.62937 218.448 -4.44009 218.625 -5.6824 217.604C-6.9247 216.583 -7.10169 214.772 -6.08065 213.53C-5.03201 212.31 -3.22131 212.133 -2.00662 213.132Z" fill="#F178B6" fill-opacity="0.3"/>
<path d="M19.0266 187.54C20.2689 188.561 20.446 190.372 19.4249 191.614C18.4039 192.857 16.5932 193.034 15.3509 192.013C14.1086 190.992 13.9316 189.181 14.9526 187.939C16.0012 186.719 17.8119 186.542 19.0266 187.54Z" fill="#F178B6" fill-opacity="0.3"/>
<path d="M40.0599 161.949C41.3022 162.97 41.4792 164.781 40.4582 166.023C39.4372 167.265 37.6265 167.442 36.3842 166.421C35.1419 165.4 34.9648 163.589 35.9859 162.347C37.0345 161.128 38.8452 160.951 40.0599 161.949Z" fill="#F178B6" fill-opacity="0.3"/>
<path d="M61.1159 136.33C62.3582 137.351 62.5353 139.162 61.5142 140.404C60.4932 141.646 58.6825 141.823 57.4402 140.802C56.1979 139.781 56.0209 137.97 57.0419 136.728C58.0678 135.536 59.9012 135.331 61.1159 136.33Z" fill="#F178B6" fill-opacity="0.3"/>
<path d="M82.1493 110.738C83.3916 111.759 83.5686 113.57 82.5475 114.812C81.5265 116.055 79.7159 116.232 78.4735 115.211C77.2312 114.19 77.0542 112.379 78.0752 111.137C79.1239 109.917 80.9346 109.74 82.1493 110.738Z" fill="#F178B6" fill-opacity="0.3"/>
<path d="M103.183 85.1469C104.425 86.1679 104.602 87.9786 103.581 89.2209C102.56 90.4632 100.749 90.6402 99.5068 89.6191C98.2645 88.5981 98.0875 86.7874 99.1085 85.5451C100.157 84.3255 101.968 84.1485 103.183 85.1469Z" fill="#F178B6" fill-opacity="0.3"/>
<path d="M1.97674 259.33C3.21904 260.351 3.39606 262.162 2.37502 263.404C1.35399 264.647 -0.456736 264.824 -1.69904 263.803C-2.94134 262.782 -3.11829 260.971 -2.09726 259.729C-1.04862 258.509 0.762042 258.332 1.97674 259.33Z" fill="#F178B6" fill-opacity="0.3"/>
<path d="M23.0327 233.711C24.275 234.732 24.452 236.543 23.431 237.785C22.41 239.028 20.5992 239.205 19.3569 238.184C18.1146 237.163 17.9377 235.352 18.9587 234.11C20.0074 232.89 21.818 232.713 23.0327 233.711Z" fill="#F178B6" fill-opacity="0.3"/>
<path d="M44.066 208.12C45.3083 209.141 45.4853 210.952 44.4642 212.194C43.4432 213.436 41.6326 213.613 40.3903 212.592C39.148 211.571 38.9709 209.76 39.992 208.518C41.0406 207.298 42.8513 207.121 44.066 208.12Z" fill="#F178B6" fill-opacity="0.3"/>
<path d="M65.0992 182.528C66.3415 183.549 66.5185 185.36 65.4975 186.602C64.4765 187.845 62.6658 188.022 61.4235 187.001C60.1812 185.98 60.0042 184.169 61.0252 182.927C62.0739 181.707 63.8845 181.53 65.0992 182.528Z" fill="#F178B6" fill-opacity="0.3"/>
<path d="M86.1552 156.909C87.3975 157.93 87.5745 159.741 86.5535 160.983C85.5324 162.226 83.7218 162.403 82.4795 161.382C81.2372 160.361 81.0602 158.55 82.0812 157.308C83.1072 156.116 84.9405 155.911 86.1552 156.909Z" fill="#F178B6" fill-opacity="0.3"/>
<path d="M107.189 131.318C108.431 132.339 108.608 134.15 107.587 135.392C106.566 136.634 104.755 136.811 103.513 135.79C102.271 134.769 102.094 132.958 103.115 131.716C104.163 130.496 105.974 130.319 107.189 131.318Z" fill="#F178B6" fill-opacity="0.3"/>
<path d="M128.222 105.726C129.464 106.747 129.641 108.558 128.62 109.8C127.599 111.043 125.788 111.22 124.546 110.199C123.304 109.178 123.127 107.367 124.148 106.125C125.196 104.905 127.007 104.728 128.222 105.726Z" fill="#F178B6" fill-opacity="0.3"/>
<path d="M6.01024 305.524C7.25254 306.545 7.42956 308.356 6.40852 309.598C5.38749 310.84 3.57683 311.017 2.33453 309.996C1.09223 308.975 0.91521 307.165 1.93624 305.922C2.95728 304.68 4.76794 304.503 6.01024 305.524Z" fill="#F178B6" fill-opacity="0.3"/>
<path d="M27.0436 279.932C28.2859 280.954 28.463 282.764 27.4419 284.006C26.4209 285.249 24.6102 285.426 23.3679 284.405C22.1256 283.384 21.9486 281.573 22.9696 280.331C23.9907 279.088 25.8013 278.911 27.0436 279.932Z" fill="#F178B6" fill-opacity="0.3"/>
<path d="M48.4979 258.387C49.5129 257.152 49.3346 255.328 48.0996 254.313C46.8646 253.298 45.0406 253.477 44.0256 254.712C43.0106 255.947 43.1888 257.771 44.4238 258.786C45.6588 259.801 47.4829 259.622 48.4979 258.387Z" fill="#F178B6" fill-opacity="0.3"/>
<path d="M69.1329 228.722C70.3752 229.743 70.5522 231.554 69.5311 232.796C68.5101 234.038 66.6995 234.215 65.4571 233.194C64.2148 232.173 64.0378 230.363 65.0589 229.12C66.0799 227.878 67.8906 227.701 69.1329 228.722Z" fill="#F178B6" fill-opacity="0.3"/>
<path d="M90.1661 203.131C91.4084 204.152 91.5854 205.962 90.5644 207.205C89.5434 208.447 87.7327 208.624 86.4904 207.603C85.2481 206.582 85.0711 204.771 86.0921 203.529C87.1132 202.287 88.9238 202.11 90.1661 203.131Z" fill="#F178B6" fill-opacity="0.3"/>
<path d="M111.62 181.585C112.635 180.35 112.457 178.527 111.222 177.511C109.987 176.496 108.163 176.675 107.148 177.91C106.133 179.145 106.311 180.969 107.546 181.984C108.781 182.999 110.605 182.82 111.62 181.585Z" fill="#F178B6" fill-opacity="0.3"/>
<path d="M132.255 151.92C133.498 152.941 133.675 154.752 132.654 155.994C131.633 157.236 129.822 157.413 128.58 156.392C127.337 155.371 127.16 153.561 128.181 152.318C129.203 151.076 131.013 150.899 132.255 151.92Z" fill="#F178B6" fill-opacity="0.3"/>
<path d="M153.289 126.329C154.531 127.35 154.708 129.16 153.687 130.403C152.666 131.645 150.855 131.822 149.613 130.801C148.371 129.78 148.194 127.969 149.215 126.727C150.236 125.485 152.046 125.307 153.289 126.329Z" fill="#F178B6" fill-opacity="0.3"/>
<path d="M10.4147 355.769C11.4297 354.534 11.2513 352.71 10.0163 351.695C8.78135 350.68 6.95737 350.858 5.94235 352.093C4.92732 353.328 5.10564 355.152 6.34063 356.167C7.57562 357.182 9.39965 357.004 10.4147 355.769Z" fill="#F178B6" fill-opacity="0.3"/>
<path d="M31.0496 326.103C32.2919 327.125 32.469 328.935 31.4479 330.178C30.4269 331.42 28.6162 331.597 27.3739 330.576C26.1316 329.555 25.9546 327.744 26.9756 326.502C27.9966 325.259 29.8073 325.082 31.0496 326.103Z" fill="#F178B6" fill-opacity="0.3"/>
<path d="M52.0829 300.512C53.3252 301.533 53.5023 303.344 52.4813 304.586C51.4602 305.828 49.6495 306.005 48.4072 304.984C47.1649 303.963 46.9879 302.153 48.0089 300.91C49.03 299.668 50.8406 299.491 52.0829 300.512Z" fill="#F178B6" fill-opacity="0.3"/>
<path d="M73.5372 278.967C74.5523 277.732 74.3739 275.908 73.1389 274.893C71.9039 273.878 70.0799 274.056 69.0649 275.291C68.0499 276.526 68.2281 278.35 69.4631 279.365C70.6981 280.38 72.5222 280.202 73.5372 278.967Z" fill="#F178B6" fill-opacity="0.3"/>
<path d="M94.1722 249.302C95.4145 250.323 95.5916 252.133 94.5706 253.376C93.5495 254.618 91.7388 254.795 90.4965 253.774C89.2542 252.753 89.0772 250.942 90.0982 249.7C91.1193 248.457 92.9299 248.28 94.1722 249.302Z" fill="#F178B6" fill-opacity="0.3"/>
<path d="M115.205 223.71C116.448 224.731 116.625 226.542 115.604 227.784C114.583 229.026 112.772 229.203 111.53 228.182C110.287 227.161 110.11 225.351 111.131 224.108C112.152 222.866 113.963 222.689 115.205 223.71Z" fill="#F178B6" fill-opacity="0.3"/>
<path d="M136.66 202.165C137.675 200.93 137.496 199.106 136.261 198.091C135.026 197.076 133.202 197.254 132.187 198.489C131.172 199.724 131.351 201.548 132.586 202.563C133.821 203.578 135.645 203.4 136.66 202.165Z" fill="#F178B6" fill-opacity="0.3"/>
<path d="M157.295 172.499C158.537 173.521 158.714 175.331 157.693 176.574C156.672 177.816 154.861 177.993 153.619 176.972C152.377 175.951 152.2 174.14 153.221 172.898C154.242 171.655 156.052 171.478 157.295 172.499Z" fill="#F178B6" fill-opacity="0.3"/>
<path d="M178.328 146.908C179.57 147.929 179.747 149.74 178.726 150.982C177.705 152.224 175.895 152.401 174.652 151.38C173.41 150.359 173.233 148.549 174.254 147.306C175.275 146.064 177.086 145.887 178.328 146.908Z" fill="#F178B6" fill-opacity="0.3"/>
<path d="M56.089 346.683C57.3313 347.704 57.5083 349.515 56.4873 350.757C55.4662 351.999 53.6556 352.176 52.4133 351.155C51.171 350.134 50.9939 348.324 52.015 347.081C53.036 345.839 54.8467 345.662 56.089 346.683Z" fill="#F178B6" fill-opacity="0.3"/>
<path d="M77.1223 321.092C78.3646 322.113 78.5416 323.923 77.5206 325.165C76.4996 326.408 74.6888 326.585 73.4465 325.564C72.2042 324.543 72.0273 322.732 73.0483 321.49C74.0693 320.247 75.88 320.07 77.1223 321.092Z" fill="#F178B6" fill-opacity="0.3"/>
<path d="M98.1783 295.472C99.4206 296.493 99.5976 298.304 98.5766 299.546C97.5555 300.789 95.7448 300.966 94.5025 299.945C93.2602 298.924 93.0832 297.113 94.1043 295.871C95.1253 294.628 96.936 294.451 98.1783 295.472Z" fill="#F178B6" fill-opacity="0.3"/>
<path d="M119.212 269.881C120.454 270.902 120.631 272.713 119.61 273.955C118.589 275.197 116.778 275.374 115.536 274.353C114.294 273.332 114.117 271.522 115.138 270.279C116.159 269.037 117.969 268.86 119.212 269.881Z" fill="#F178B6" fill-opacity="0.3"/>
<path d="M140.245 244.29C141.487 245.311 141.664 247.121 140.643 248.364C139.622 249.606 137.811 249.783 136.569 248.762C135.327 247.741 135.15 245.93 136.171 244.688C137.192 243.446 139.002 243.269 140.245 244.29Z" fill="#F178B6" fill-opacity="0.3"/>
<path d="M161.301 218.671C162.543 219.692 162.72 221.502 161.699 222.745C160.678 223.987 158.867 224.164 157.625 223.143C156.383 222.122 156.206 220.311 157.227 219.069C158.225 217.854 160.059 217.649 161.301 218.671Z" fill="#F178B6" fill-opacity="0.3"/>
<path d="M182.334 193.079C183.576 194.1 183.753 195.911 182.732 197.153C181.711 198.395 179.901 198.572 178.658 197.551C177.416 196.53 177.239 194.72 178.26 193.477C179.281 192.235 181.092 192.058 182.334 193.079Z" fill="#F178B6" fill-opacity="0.3"/>
<path d="M203.367 167.488C204.61 168.509 204.787 170.319 203.766 171.562C202.745 172.804 200.934 172.981 199.692 171.96C198.449 170.939 198.272 169.128 199.293 167.886C200.314 166.644 202.125 166.467 203.367 167.488Z" fill="#F178B6" fill-opacity="0.3"/>
<path d="M102.162 341.671C103.404 342.692 103.581 344.503 102.56 345.745C101.539 346.987 99.7281 347.164 98.4858 346.143C97.2435 345.122 97.0665 343.312 98.0876 342.069C99.1086 340.827 100.919 340.65 102.162 341.671Z" fill="#F178B6" fill-opacity="0.3"/>
<path d="M123.684 319.978C124.663 318.713 124.431 316.895 123.166 315.917C121.902 314.939 120.084 315.171 119.106 316.435C118.127 317.699 118.359 319.517 119.624 320.496C120.888 321.474 122.706 321.242 123.684 319.978Z" fill="#F178B6" fill-opacity="0.3"/>
<path d="M144.251 290.46C145.493 291.482 145.67 293.292 144.649 294.535C143.628 295.777 141.817 295.954 140.575 294.933C139.333 293.912 139.156 292.101 140.177 290.859C141.198 289.616 143.009 289.439 144.251 290.46Z" fill="#F178B6" fill-opacity="0.3"/>
<path d="M165.284 264.869C166.526 265.89 166.703 267.701 165.682 268.943C164.661 270.185 162.851 270.362 161.608 269.341C160.366 268.32 160.189 266.51 161.21 265.267C162.231 264.025 164.042 263.848 165.284 264.869Z" fill="#F178B6" fill-opacity="0.3"/>
<path d="M186.806 243.171C187.784 241.907 187.552 240.089 186.288 239.11C185.023 238.132 183.205 238.364 182.227 239.628C181.249 240.892 181.481 242.71 182.745 243.689C184.009 244.667 185.827 244.435 186.806 243.171Z" fill="#F178B6" fill-opacity="0.3"/>
<path d="M207.373 213.658C208.616 214.68 208.793 216.49 207.772 217.733C206.751 218.975 204.94 219.152 203.698 218.131C202.455 217.11 202.278 215.299 203.299 214.057C204.32 212.814 206.131 212.637 207.373 213.658Z" fill="#F178B6" fill-opacity="0.3"/>
<path d="M228.407 188.067C229.649 189.088 229.826 190.899 228.805 192.141C227.784 193.383 225.973 193.56 224.731 192.539C223.489 191.518 223.312 189.708 224.333 188.465C225.354 187.223 227.164 187.046 228.407 188.067Z" fill="#F178B6" fill-opacity="0.3"/>
<path d="M148.719 340.584C149.713 339.332 149.504 337.511 148.252 336.517C147 335.523 145.179 335.732 144.185 336.984C143.191 338.235 143.4 340.056 144.652 341.051C145.904 342.045 147.725 341.836 148.719 340.584Z" fill="#F178B6" fill-opacity="0.3"/>
<path d="M169.29 311.04C170.532 312.061 170.709 313.872 169.688 315.114C168.667 316.356 166.857 316.533 165.614 315.512C164.372 314.491 164.195 312.681 165.216 311.438C166.237 310.196 168.075 310.042 169.29 311.04Z" fill="#F178B6" fill-opacity="0.3"/>
<path d="M190.323 285.449C191.566 286.47 191.743 288.28 190.722 289.523C189.701 290.765 187.89 290.942 186.648 289.921C185.405 288.9 185.228 287.089 186.249 285.847C187.27 284.605 189.109 284.45 190.323 285.449Z" fill="#F178B6" fill-opacity="0.3"/>
<path d="M211.841 263.776C212.835 262.524 212.626 260.704 211.374 259.709C210.122 258.715 208.301 258.924 207.307 260.176C206.313 261.428 206.522 263.249 207.774 264.243C209.026 265.237 210.847 265.028 211.841 263.776Z" fill="#F178B6" fill-opacity="0.3"/>
<path d="M232.413 234.238C233.655 235.259 233.832 237.07 232.811 238.312C231.79 239.554 229.979 239.731 228.737 238.71C227.495 237.689 227.318 235.879 228.339 234.636C229.36 233.394 231.198 233.24 232.413 234.238Z" fill="#F178B6" fill-opacity="0.3"/>
<path d="M253.446 208.647C254.688 209.668 254.865 211.478 253.844 212.721C252.823 213.963 251.013 214.14 249.77 213.119C248.528 212.098 248.351 210.287 249.372 209.045C250.393 207.803 252.231 207.648 253.446 208.647Z" fill="#F178B6" fill-opacity="0.3"/>
<path d="M173.467 357.327C172.267 356.271 170.438 356.389 169.382 357.589C168.327 358.79 168.444 360.618 169.644 361.674C170.845 362.73 172.674 362.612 173.729 361.412C174.785 360.211 174.667 358.382 173.467 357.327Z" fill="#F178B6" fill-opacity="0.3"/>
<path d="M194.33 331.62C195.572 332.641 195.749 334.451 194.728 335.694C193.707 336.936 191.896 337.113 190.654 336.092C189.412 335.071 189.234 333.26 190.256 332.018C191.304 330.798 193.115 330.621 194.33 331.62Z" fill="#F178B6" fill-opacity="0.3"/>
<path d="M215.363 306.028C216.605 307.049 216.782 308.86 215.761 310.102C214.74 311.344 212.929 311.521 211.687 310.5C210.445 309.479 210.268 307.669 211.289 306.426C212.337 305.207 214.148 305.03 215.363 306.028Z" fill="#F178B6" fill-opacity="0.3"/>
<path d="M236.589 280.525C235.389 279.47 233.56 279.587 232.504 280.788C231.449 281.988 231.566 283.817 232.767 284.873C233.967 285.928 235.796 285.811 236.852 284.61C237.907 283.41 237.79 281.581 236.589 280.525Z" fill="#F178B6" fill-opacity="0.3"/>
<path d="M257.452 254.818C258.694 255.839 258.871 257.649 257.85 258.892C256.829 260.134 255.019 260.311 253.776 259.29C252.534 258.269 252.357 256.458 253.378 255.216C254.427 253.996 256.237 253.819 257.452 254.818Z" fill="#F178B6" fill-opacity="0.3"/>
<path d="M278.485 229.226C279.728 230.247 279.905 232.058 278.884 233.3C277.863 234.542 276.052 234.719 274.81 233.698C273.567 232.677 273.39 230.867 274.411 229.624C275.46 228.405 277.271 228.228 278.485 229.226Z" fill="#F178B6" fill-opacity="0.3"/>
<path d="M219.369 352.199C220.611 353.22 220.788 355.031 219.767 356.273C218.746 357.515 216.935 357.692 215.693 356.671C214.451 355.65 214.274 353.84 215.295 352.597C216.344 351.378 218.154 351.201 219.369 352.199Z" fill="#F178B6" fill-opacity="0.3"/>
<path d="M240.402 326.608C241.644 327.629 241.821 329.439 240.8 330.682C239.779 331.924 237.969 332.101 236.726 331.08C235.484 330.059 235.307 328.248 236.328 327.006C237.377 325.786 239.187 325.609 240.402 326.608Z" fill="#F178B6" fill-opacity="0.3"/>
<path d="M261.856 305.063C262.871 303.828 262.693 302.004 261.458 300.989C260.223 299.974 258.399 300.152 257.384 301.387C256.369 302.622 256.547 304.446 257.782 305.461C259.017 306.476 260.841 306.298 261.856 305.063Z" fill="#F178B6" fill-opacity="0.3"/>
<path d="M282.491 275.397C283.734 276.418 283.911 278.229 282.89 279.471C281.869 280.713 280.058 280.89 278.816 279.869C277.573 278.848 277.396 277.038 278.417 275.795C279.466 274.576 281.277 274.399 282.491 275.397Z" fill="#F178B6" fill-opacity="0.3"/>
<path d="M303.525 249.806C304.767 250.827 304.944 252.637 303.923 253.88C302.902 255.122 301.091 255.299 299.849 254.278C298.607 253.257 298.43 251.446 299.451 250.204C300.499 248.984 302.31 248.807 303.525 249.806Z" fill="#F178B6" fill-opacity="0.3"/>
<path d="M265.441 347.187C266.684 348.208 266.861 350.019 265.84 351.261C264.819 352.503 263.008 352.68 261.766 351.659C260.523 350.638 260.346 348.828 261.367 347.585C262.416 346.366 264.227 346.189 265.441 347.187Z" fill="#F178B6" fill-opacity="0.3"/>
<path d="M286.497 321.568C287.74 322.589 287.917 324.4 286.896 325.642C285.875 326.884 284.064 327.061 282.822 326.04C281.579 325.019 281.402 323.209 282.423 321.966C283.449 320.774 285.283 320.57 286.497 321.568Z" fill="#F178B6" fill-opacity="0.3"/>
<path d="M307.531 295.977C308.773 296.998 308.95 298.808 307.929 300.051C306.908 301.293 305.097 301.47 303.855 300.449C302.613 299.428 302.436 297.617 303.457 296.375C304.505 295.155 306.316 294.978 307.531 295.977Z" fill="#F178B6" fill-opacity="0.3"/>
<path d="M328.564 270.385C329.806 271.406 329.983 273.217 328.962 274.459C327.941 275.701 326.131 275.878 324.888 274.857C323.646 273.836 323.469 272.026 324.49 270.783C325.539 269.564 327.349 269.387 328.564 270.385Z" fill="#F178B6" fill-opacity="0.3"/>
<path d="M311.564 342.17C312.807 343.191 312.984 345.002 311.963 346.244C310.942 347.487 309.131 347.664 307.889 346.642C306.646 345.621 306.469 343.811 307.49 342.568C308.489 341.354 310.322 341.149 311.564 342.17Z" fill="#F178B6" fill-opacity="0.3"/>
<path d="M332.598 316.579C333.84 317.6 334.017 319.41 332.996 320.653C331.975 321.895 330.164 322.072 328.922 321.051C327.68 320.03 327.503 318.219 328.524 316.977C329.545 315.735 331.355 315.558 332.598 316.579Z" fill="#F178B6" fill-opacity="0.3"/>
<path d="M353.631 290.987C354.873 292.008 355.05 293.819 354.029 295.061C353.008 296.304 351.198 296.481 349.955 295.46C348.713 294.438 348.536 292.628 349.557 291.386C350.578 290.143 352.389 289.966 353.631 290.987Z" fill="#F178B6" fill-opacity="0.3"/>
<path d="M357.637 337.158C358.879 338.179 359.056 339.99 358.035 341.232C357.014 342.475 355.204 342.652 353.961 341.631C352.719 340.609 352.542 338.799 353.563 337.557C354.584 336.314 356.395 336.137 357.637 337.158Z" fill="#F178B6" fill-opacity="0.3"/>
<path d="M378.67 311.567C379.913 312.588 380.09 314.398 379.069 315.641C378.048 316.883 376.237 317.06 374.995 316.039C373.752 315.018 373.575 313.207 374.596 311.965C375.617 310.723 377.428 310.546 378.67 311.567Z" fill="#F178B6" fill-opacity="0.3"/>
<path d="M382.676 357.738C383.919 358.759 384.096 360.569 383.075 361.812C382.054 363.054 380.243 363.231 379.001 362.21C377.758 361.189 377.581 359.378 378.602 358.136C379.623 356.894 381.434 356.717 382.676 357.738Z" fill="#F178B6" fill-opacity="0.3"/>
<path d="M403.71 332.146C404.952 333.167 405.129 334.978 404.108 336.22C403.087 337.463 401.276 337.64 400.034 336.618C398.792 335.597 398.615 333.787 399.636 332.544C400.657 331.302 402.467 331.125 403.71 332.146Z" fill="#F178B6" fill-opacity="0.3"/>
<path d="M428.749 352.726C429.991 353.747 430.168 355.557 429.147 356.8C428.126 358.042 426.316 358.219 425.073 357.198C423.831 356.177 423.654 354.366 424.675 353.124C425.696 351.882 427.507 351.705 428.749 352.726Z" fill="#F178B6" fill-opacity="0.3"/>
</svg>
