<svg width="797" height="840" viewBox="0 0 797 840" fill="none" xmlns="http://www.w3.org/2000/svg">
<path fill-rule="evenodd" clip-rule="evenodd" d="M578.452 670C582.197 660.056 593.529 624.5 598.237 615.214C598.35 614.862 598.584 614.562 598.897 614.366C599.21 614.171 599.582 614.092 599.948 614.145C600.313 614.198 600.648 614.378 600.893 614.655C601.138 614.931 601.277 615.285 601.285 615.654C600.74 624.086 582.79 669.677 581.752 672.355C581.222 674.563 578.842 683.823 577.989 685.915C578.626 687.142 578.882 688.531 578.724 689.905C578.566 691.279 578.002 692.574 577.103 693.625C573.709 696.906 570.506 700.379 567.511 704.028C567.184 704.797 566.288 704.606 566.192 703.999C566.981 700.661 567.349 697.238 567.289 693.81C566.68 691.81 566.824 689.656 567.692 687.754C568.561 685.853 570.095 684.334 572.005 683.484C572.032 682.972 577.115 672.205 578.452 670ZM572.148 684.031C570.499 684.929 569.228 686.39 568.565 688.147C567.902 689.904 567.891 691.841 568.535 693.605C568.833 696.067 568.715 698.562 568.184 700.985C574.566 693.941 577.486 693.137 577.952 689.655C578.079 688.51 577.951 687.352 577.577 686.263C575.099 686.704 571.813 683.728 572.148 684.031ZM578.373 671.457C576.978 674.841 575.563 678.426 573.357 683.421C574.42 684.252 575.681 684.794 577.016 684.993L581.069 672.371C580.127 672.247 579.22 671.931 578.404 671.442L578.373 671.457ZM546.951 641.094C549.415 637.051 582.862 582.182 584.074 583.528C585.285 584.875 554.383 643.992 554.094 644.435C553.151 647.721 546.455 668.883 544.963 670.355C542.648 671.347 540.041 671.411 537.68 670.534C534.444 669.334 531.544 667.374 529.223 664.82C527.619 662.968 545.391 642.829 546.951 641.094ZM531.428 665.506C532.985 667.203 534.952 668.472 537.14 669.192C539.327 669.912 541.664 670.059 543.924 669.618C540.657 668.552 533.739 666.256 531.428 665.506ZM537.416 653.811C534.747 657.081 532.349 660.563 530.246 664.222C531.291 665.378 530.246 664.222 534.613 665.344C538.104 666.138 541.454 667.453 544.554 669.244C545.574 667.342 548.949 657.995 548.735 658.518C545.022 656.748 541.212 655.192 537.322 653.856L537.416 653.811ZM547.284 641.474C543.248 646.336 540.597 649.66 537.58 653.427C541.631 653.944 545.47 655.536 548.699 658.036C549.692 655.265 553.025 645.746 553.477 644.266C552.152 643.818 548.478 642.215 547.219 641.581L547.284 641.474ZM606.361 569.698C601.321 554.887 595.417 536.3 597.287 535.302C599.156 534.303 605.431 552.945 610.139 568.029C616.666 565.598 625.763 565.521 627.387 572.045C627.945 573.081 628.31 574.209 628.462 575.375C641.664 595.196 640.947 600.908 641.003 600.459C640.215 603.523 638.767 606.377 636.761 608.823C634.754 611.269 632.238 613.248 629.387 614.62C626.523 615.992 623.398 616.738 620.223 616.809C617.047 616.88 613.893 616.274 610.969 615.032C606.512 612.34 600.349 594.989 598.672 590.14C597.936 589.301 597.305 588.375 596.793 587.382C595.635 585.911 595.031 584.079 595.087 582.208C595.143 580.336 595.855 578.544 597.099 577.144C599.495 573.907 602.685 571.343 606.361 569.698ZM634.654 590.026C634.577 596.28 628.399 601.156 622.815 603.794C623.449 605.334 623.99 606.912 624.432 608.518C624.745 609.829 624.951 610.997 623.713 611.544C621.778 612.021 619.734 611.719 618.02 610.703C616.626 609.865 616.518 609.149 616.278 605.961C614.751 606.249 613.18 606.2 611.674 605.818C610.168 605.435 608.763 604.73 607.558 603.749C608.895 606.546 610.499 609.206 612.348 611.694C613.599 612.63 615.052 613.258 616.591 613.527C626.409 615.95 634.234 610.258 638.499 600.682C637.716 598.213 636.006 593.456 634.654 590.026ZM599.924 591.084C601.498 594.984 608.225 611.416 611.841 613.546C614.384 614.678 617.162 615.182 619.941 615.015C616.927 614.976 614.008 613.958 611.624 612.113C609.498 609.008 607.709 605.685 606.288 602.2C605.64 601.341 605.211 600.338 605.037 599.277C604.864 598.216 604.951 597.128 605.291 596.108C606.303 592.483 607.533 593.706 604.827 593.258C603.067 592.987 601.403 592.284 599.983 591.209L599.924 591.084ZM617.109 605.607C617.209 606.804 617.422 607.988 617.744 609.145C618.248 610.212 622.198 611.262 623.394 610.544C623.833 610.336 623.647 609.618 623.434 608.76C623.041 607.209 622.551 605.684 621.968 604.194C620.43 604.884 618.82 605.4 617.168 605.733L617.109 605.607ZM628.589 576.62C628.451 579.117 627.565 581.515 626.045 583.502C630.187 582.926 633.713 584.216 634.474 588.346C635.408 590.323 636.327 592.268 636.969 594.114C639.753 600.819 639.4 600.64 639.492 600.022C638.328 593.74 632.031 582.362 628.648 576.745L628.589 576.62ZM625.646 584.036C623.382 586.843 620.514 589.102 617.256 590.647C618.146 592.52 618.785 594.502 619.158 596.542C620.272 598.571 621.262 600.667 622.122 602.816C626.115 601.094 629.533 598.268 631.974 594.67C635.48 589.176 633.582 583.126 625.705 584.161L625.646 584.036ZM616.394 598.001C616.413 598.529 616.904 603.631 616.993 604.549C618.562 604.227 620.089 603.724 621.543 603.052C620.817 601.515 619.737 598.417 618.979 596.895C618.23 597.473 617.37 597.893 616.453 598.127L616.394 598.001ZM607.088 593.494C603.021 600.481 608.675 605.869 616.243 604.75C616.116 602.776 616.055 599.965 616.052 598.009C615.254 596.095 614.582 594.13 614.041 592.128C611.818 592.977 609.467 593.439 607.088 593.494ZM614.338 592.026L616.457 597.242C616.99 596.99 618.835 596.426 618.528 596.264C618.221 596.102 617.542 593.122 616.784 590.947C615.998 591.396 615.167 591.75 614.353 592.057L614.338 592.026ZM627.478 575.648C625.199 585.283 608.364 593.352 599.241 588.989C600.594 590.273 602.254 591.187 604.063 591.644C605.871 592.1 607.767 592.083 609.567 591.594C617.639 590.159 627.66 583.506 627.493 575.68L627.478 575.648ZM611.21 571.514C613.337 578.453 615.011 584.109 615.544 585.968C620.282 583.73 625.804 579.01 626.192 574.145C623.189 569.577 616.404 569.674 611.225 571.545L611.21 571.514ZM607.57 573.233C605.04 574.585 602.92 576.591 601.432 579.043C599.944 581.495 599.142 584.302 599.111 587.17C602.601 589.358 608.467 588.698 612.536 587.236C611.877 585.436 609.919 579.991 607.585 573.265L607.57 573.233ZM606.58 570.324C603.219 572.064 600.349 574.621 598.234 577.759C596.287 580.867 595.709 584.517 598.654 586.771C598.557 583.794 599.3 580.85 600.798 578.275C602.297 575.7 604.49 573.6 607.127 572.215L606.58 570.324ZM610.524 568.844C610.776 569.378 610.871 569.985 611.029 570.563C616.428 568.588 623.116 568.69 626.335 573.31C626.115 569.921 623.017 568.238 619.596 567.82C616.534 567.504 613.439 567.854 610.524 568.844ZM646.599 567.382C641.67 560.769 604.016 511.936 606.504 506.885C607.551 505.436 608.839 504.178 610.312 503.167C614.26 500.15 640.498 483.149 643.578 486.337C646.658 489.526 666.414 550.921 667.317 554.294C668.31 556.396 670.298 562.633 670.298 562.633C670.287 564.719 669.782 566.773 668.823 568.626C667.865 570.479 666.48 572.078 664.784 573.291C663.087 574.505 661.126 575.299 659.063 575.607C657 575.916 654.893 575.731 652.916 575.067C650.536 572.743 648.418 570.166 646.599 567.382ZM645.268 494.058C633.33 499.895 621.839 506.606 610.89 514.138C618.088 526.856 638.324 554.905 646.999 566.848C651.109 567.091 655.198 566.109 658.751 564.028C662.303 561.947 665.159 558.859 666.957 555.155C666.042 552.325 646.678 497.691 645.268 494.058ZM651.042 513.589C651.042 513.589 650.222 511.367 647.839 513.145C645.455 514.924 642.789 521.71 636.654 523.994C630.518 526.279 623.346 525.638 622.627 528.664C621.907 531.69 632.619 535.111 641.48 528.929C651.649 521.861 652.418 515.933 651.042 513.589ZM609.457 505.988C608.987 506.21 607.938 507.32 608.005 507.787C608.677 509.902 609.629 511.918 610.836 513.78L613.692 511.701C612.021 510.003 610.596 508.08 609.457 505.988ZM614.337 502.263C612.87 503.301 611.151 504.536 609.806 505.67C611.25 507.52 612.585 509.451 613.806 511.456C614.894 510.673 617.953 508.537 618.881 507.983C618.683 507.808 616.7 505.56 614.337 502.263ZM619.959 498.647C618.086 499.801 616.322 500.941 614.715 502.007C616.475 503.743 617.977 505.721 619.178 507.881L624.138 504.732C623.461 503.786 621.26 500.834 619.959 498.647ZM625.559 495.311C624.492 495.815 622.352 497.133 620.337 498.392C622.01 500.224 623.393 502.302 624.437 504.553L629.832 501.351C629.486 500.862 627.493 498.35 625.653 495.266L625.559 495.311ZM631.641 491.939L625.952 495.087C627.636 496.899 629.044 498.949 630.131 501.171C631.951 500.312 633.84 499.112 635.599 498.204C635.569 498.142 631.928 492.302 631.735 491.894L631.641 491.939ZM639.233 488.351C640.159 490.603 640.952 492.906 641.61 495.25L645.092 493.604C644.722 492.82 642.765 487.297 642.128 487.329C641.134 487.58 640.169 487.933 639.248 488.383L639.233 488.351ZM638.826 488.544L632.08 491.731C633.708 493.606 635.004 495.745 635.913 498.056L641.372 495.477C640.222 493.288 639.366 490.957 638.826 488.544ZM423.114 643.301C427.224 641.359 431.293 641.279 432.197 643.193C433.101 645.107 430.456 648.199 426.346 650.14C422.236 652.082 418.184 652.116 417.294 650.234C416.405 648.351 418.879 645.302 423.114 643.301ZM335.263 662.701C335.589 663.391 334.599 664.626 332.997 665.46C331.395 666.293 329.637 666.471 329.296 665.75C328.574 664.057 334.355 660.942 335.263 662.701Z" fill="#A5A6F6"/>
<path d="M402.386 727.852C404.396 726.902 405.568 725.163 405.003 723.968C404.438 722.772 402.351 722.573 400.341 723.522C398.331 724.472 397.159 726.211 397.724 727.407C398.289 728.602 400.376 728.802 402.386 727.852Z" fill="#A5A6F6"/>
<path fill-rule="evenodd" clip-rule="evenodd" d="M508.954 547.752C512.091 546.27 515.219 545.905 515.738 547.003C516.257 548.101 514.097 550.273 510.866 551.8C507.634 553.326 504.632 553.632 504.098 552.502C503.564 551.373 505.753 549.264 508.954 547.752ZM271.352 562.029C271.723 562.814 274.054 568.966 278.396 577.506C278.944 578.667 281.032 582.517 281.032 582.517C281.032 582.517 281.512 582.558 281.408 582.339C281.304 582.119 279.729 578.297 279.212 577.121C275.991 569.816 271.581 561.538 271.729 561.851C271.705 561.802 271.663 561.763 271.611 561.744C271.559 561.726 271.502 561.729 271.452 561.752C271.402 561.776 271.363 561.818 271.345 561.87C271.326 561.922 271.329 561.979 271.352 562.029ZM240.06 157.468C244.486 156.682 252.472 155.634 256.508 157.679C256.655 157.755 256.772 157.877 256.844 158.025C256.915 158.174 256.937 158.341 256.905 158.503C256.874 158.665 256.791 158.812 256.669 158.922C256.547 159.033 256.392 159.101 256.228 159.117C241.262 159.932 224.36 175.9 214.175 187.159C210.148 191.632 224.215 143.425 248.383 138.531C248.552 138.506 248.725 138.536 248.875 138.617C249.026 138.698 249.147 138.825 249.22 138.979C249.293 139.134 249.314 139.308 249.281 139.476C249.248 139.643 249.161 139.796 249.035 139.911C244.659 143.39 240.535 147.172 236.691 151.231C240.373 149.683 248.939 146.288 252.888 147.416C253.044 147.46 253.183 147.548 253.29 147.669C253.397 147.791 253.466 147.941 253.489 148.101C253.511 148.262 253.487 148.425 253.418 148.572C253.35 148.718 253.24 148.842 253.102 148.927C248.61 151.547 244.257 154.398 240.06 157.468ZM245.095 141.158C238.922 144.047 233.619 148.512 229.72 154.102C222.55 163.698 217.267 174.568 214.151 186.134C223.707 175.249 238.019 161.272 252.245 158.159C247.22 158.004 242.198 158.518 237.31 159.688C237.132 159.731 236.944 159.71 236.78 159.631C236.615 159.552 236.482 159.418 236.404 159.253C236.326 159.087 236.307 158.9 236.35 158.722C236.394 158.545 236.497 158.387 236.643 158.277C240.814 154.73 245.278 151.543 249.986 148.749C244.639 149.887 239.442 151.647 234.503 153.991C234.344 154.072 234.163 154.097 233.988 154.063C233.813 154.029 233.655 153.937 233.538 153.802C233.421 153.667 233.353 153.498 233.344 153.32C233.335 153.142 233.386 152.966 233.489 152.82C236.909 148.51 240.802 144.599 245.095 141.158ZM157.216 503.7C154.289 505.583 151.233 507.257 148.071 508.711C147.914 508.793 147.734 508.818 147.561 508.781C147.388 508.745 147.232 508.65 147.122 508.511C147.011 508.373 146.952 508.201 146.954 508.024C146.957 507.847 147.021 507.677 147.135 507.542C150.032 503.602 158.215 497.203 161.38 491.716L169.343 478.436C169.354 478.399 169.373 478.363 169.399 478.333C169.424 478.304 169.456 478.279 169.491 478.262C169.527 478.246 169.566 478.237 169.605 478.236C169.645 478.235 169.684 478.243 169.72 478.258C170.258 478.503 169.551 478.876 168.075 485.905C166.986 490.341 166.56 494.914 166.81 499.474C167.017 504.269 167.47 509.051 168.167 513.8C168.612 514.741 166.679 516.499 164.875 511.057C164.228 509.014 163.684 506.94 163.244 504.843C161.1 508.73 158.661 512.449 155.95 515.965C155.856 516.099 155.723 516.202 155.568 516.258C155.414 516.315 155.246 516.322 155.088 516.28C154.929 516.237 154.787 516.147 154.682 516.02C154.577 515.894 154.513 515.739 154.499 515.575C154.52 511.465 155.448 507.41 157.216 503.7ZM168.408 481.411C158.148 499.498 163.166 492.33 150.715 505.697C153.648 504.303 156.356 502.48 158.752 500.288L158.963 499.843C159.402 498.983 161.129 499.472 160.195 500.988C158.299 504.783 156.955 508.83 156.202 513.006C158.837 509.586 161.061 505.869 162.828 501.931C162.878 501.75 162.99 501.593 163.144 501.487C163.298 501.38 163.484 501.331 163.67 501.348C163.857 501.365 164.031 501.448 164.163 501.58C164.295 501.713 164.377 501.888 164.393 502.075C164.861 504.747 165.471 507.392 166.218 510C164.73 500.429 165.48 490.644 168.408 481.411ZM163.619 465.752C164.867 454.617 169.169 444.044 176.05 435.202C185.511 423.71 192.856 427.723 192.522 441.312C191.965 452.306 188.8 463.009 183.289 472.538C185.732 475.322 187.687 478.499 189.071 481.934C189.738 485.457 176.886 497.976 174.665 498.718C174.503 498.786 174.324 498.808 174.15 498.782C173.976 498.756 173.812 498.684 173.675 498.572C173.021 497.998 173.431 496.999 173.869 496.139C176.378 491.532 179.194 487.098 182.298 482.869L179.618 477.765L178.245 479.489C178.144 479.576 178.02 479.633 177.888 479.655C177.756 479.677 177.621 479.662 177.497 479.612L163.064 474.649C162.993 474.619 162.936 474.564 162.903 474.494C162.87 474.425 162.864 474.346 162.886 474.272C162.886 474.272 162.888 473.465 162.999 471.993L157.508 474.587C157.493 476.667 157.251 490.289 155.85 491.872C155.753 491.993 155.628 492.089 155.486 492.151C155.344 492.214 155.189 492.241 155.035 492.232C154.88 492.222 154.73 492.176 154.596 492.096C154.463 492.017 154.351 491.907 154.269 491.775C152.781 489.6 150.176 472.064 152.821 469.702C156.087 467.775 159.639 466.382 163.344 465.575C163.402 465.571 163.461 465.586 163.51 465.618C163.56 465.65 163.598 465.697 163.619 465.752ZM182.703 473.084C181.85 474.503 180.923 475.876 179.926 477.198L183.386 482.816C183.608 483.287 183.475 483.004 179.157 490.11C177.821 492.238 176.484 494.443 175.625 496.039C179.766 492.478 183.477 488.445 186.681 484.023C186.922 483.64 187.536 482.583 187.469 482.116C186.346 478.881 184.739 475.836 182.703 473.084ZM164.02 469.362C163.656 471.759 163.526 473.433 163.495 474.1L177.475 478.509C178.338 477.411 179.235 476.142 180.151 474.75C174.606 473.504 169.201 471.699 164.02 469.362ZM163.544 466.324C160.091 467.394 156.806 468.946 153.787 470.934C152.867 471.829 153.341 477.707 153.426 478.78C153.713 482.257 154.254 485.709 155.043 489.107C155.606 485.425 156.438 473.865 156.426 474.408C156.427 474.3 156.459 474.195 156.519 474.105C156.579 474.016 156.664 473.945 156.763 473.903L163.029 471.326C163.093 469.838 163.268 468.258 163.544 466.324ZM173.139 441.874C168.307 450.061 165.209 459.153 164.037 468.586C169.714 469.816 175.242 471.657 180.523 474.076C185.453 465.975 188.715 456.971 190.116 447.592L173.139 441.874ZM171.243 452.402C170.938 453.32 170.817 454.288 170.887 455.253C170.956 456.217 171.215 457.158 171.648 458.023C172.082 458.887 172.681 459.658 173.412 460.29C174.143 460.923 174.992 461.406 175.909 461.71C176.827 462.015 177.796 462.136 178.76 462.067C179.724 461.997 180.666 461.738 181.53 461.305C182.394 460.872 183.165 460.272 183.798 459.541C184.431 458.81 184.913 457.962 185.218 457.044C185.833 455.191 185.688 453.169 184.813 451.423C183.937 449.678 182.405 448.351 180.552 447.736C178.698 447.12 176.677 447.266 174.931 448.141C173.185 449.016 171.859 450.549 171.243 452.402ZM180.234 448.768C181.733 449.328 182.955 450.451 183.639 451.899C184.323 453.346 184.415 455.004 183.895 456.518C183.338 457.904 182.274 459.026 180.919 459.654C179.564 460.283 178.02 460.37 176.602 459.899C175.185 459.428 174 458.433 173.291 457.118C172.582 455.804 172.401 454.268 172.786 452.824C173.26 451.315 174.302 450.049 175.691 449.293C177.08 448.536 178.709 448.348 180.234 448.768ZM179.353 451.372C179.989 451.613 180.541 452.037 180.939 452.589C181.337 453.142 181.563 453.799 181.59 454.48C181.617 455.16 181.443 455.833 181.09 456.415C180.737 456.998 180.22 457.463 179.605 457.754C178.989 458.045 178.302 458.148 177.628 458.051C176.954 457.954 176.323 457.661 175.815 457.208C175.306 456.755 174.942 456.163 174.768 455.505C174.594 454.846 174.617 454.152 174.835 453.506C174.984 453.065 175.221 452.657 175.531 452.309C175.841 451.961 176.219 451.678 176.64 451.479C177.062 451.28 177.52 451.168 177.986 451.149C178.452 451.131 178.917 451.207 179.353 451.372Z" fill="#A5A6F6"/>
<path fill-rule="evenodd" clip-rule="evenodd" d="M178.009 191.351C177.607 191.243 177.236 191.041 176.927 190.763C176.618 190.484 176.379 190.136 176.23 189.748C176.081 189.36 176.026 188.941 176.07 188.528C176.114 188.114 176.254 187.716 176.481 187.367C176.708 187.018 177.013 186.728 177.374 186.52C177.734 186.312 178.138 186.192 178.554 186.17C178.969 186.148 179.384 186.225 179.764 186.394C180.144 186.563 180.479 186.82 180.741 187.143C180.95 187.527 181.066 187.955 181.078 188.393C181.09 188.83 180.999 189.264 180.812 189.659C180.624 190.055 180.346 190.4 180 190.667C179.654 190.935 179.249 191.117 178.819 191.198C178.967 191.512 180.142 195.216 181.128 199.74C185.495 197.697 190.45 197.29 195.092 198.592C195.099 198.482 195.145 198.378 195.223 198.3C218.064 183.287 224.43 190.181 219.623 200.396C214.229 211.886 191.017 233.099 175.086 238.208C170.942 239.59 163.996 240.646 162.184 236.974C159.931 232.205 170.195 220.87 170.579 220.382C170.177 214.236 172.145 208.169 176.079 203.43C172.71 202.067 168.728 199.65 167.913 199.306C165.928 202.009 161.802 199.775 163.012 197.054C163.275 196.448 163.765 195.969 164.376 195.719C164.826 195.383 165.376 195.209 165.937 195.224C166.498 195.239 167.038 195.442 167.469 195.801C167.901 196.161 168.198 196.655 168.315 197.204C168.431 197.753 168.359 198.326 168.11 198.829C169.525 199.09 170.895 199.555 172.177 200.208C179.274 203.532 174.557 203.458 179.934 200.381C178.778 197.504 178.126 194.449 178.009 191.351ZM170.46 221.512C168.289 224.227 161.503 233.419 163.11 236.498C163.599 237.533 164.998 238.138 167.091 238.263C181.727 239.024 211.804 212.763 218.006 199.817C221.569 192.492 218.883 188.35 207.594 192.724C203.317 194.512 199.182 196.62 195.222 199.03C195.297 201.22 194.495 219.099 170.46 221.512ZM170.851 230.461C170.851 230.816 170.926 231.167 171.071 231.491C171.216 231.815 171.427 232.105 171.691 232.342C171.955 232.579 172.266 232.758 172.603 232.867C172.941 232.976 173.298 233.014 173.651 232.976C173.987 232.909 174.306 232.776 174.591 232.585C174.876 232.394 175.12 232.149 175.309 231.863C175.499 231.577 175.63 231.257 175.696 230.92C175.761 230.584 175.759 230.238 175.69 229.902C175.616 229.26 175.29 228.674 174.784 228.273C174.277 227.871 173.632 227.687 172.991 227.762C172.349 227.836 171.763 228.162 171.361 228.668C170.96 229.175 170.776 229.82 170.851 230.461ZM173.008 228.367C174.685 228.343 174.93 231.297 173.434 231.543C171.939 231.789 171.369 228.797 173.008 228.367ZM193.811 216.352C193.511 216.291 193.202 216.299 192.905 216.374C192.608 216.449 192.332 216.589 192.097 216.785C191.862 216.981 191.674 217.227 191.546 217.505C191.419 217.783 191.355 218.086 191.36 218.392C191.385 219.069 191.659 219.712 192.13 220.198C192.6 220.684 193.234 220.979 193.909 221.026C194.238 221.063 194.572 221.026 194.885 220.918C195.199 220.81 195.484 220.632 195.72 220.4C195.956 220.167 196.136 219.884 196.249 219.572C196.361 219.26 196.402 218.927 196.369 218.597C196.29 217.975 195.987 217.403 195.516 216.99C195.045 216.576 194.438 216.349 193.811 216.352ZM193.768 216.909C195.468 217.258 195.689 219.839 194.016 219.709C192.343 219.578 191.966 216.993 193.783 216.941L193.768 216.909ZM206.314 200.006C206.051 199.922 205.772 199.898 205.499 199.936C205.225 199.974 204.963 200.073 204.733 200.226C204.503 200.379 204.31 200.581 204.17 200.819C204.029 201.057 203.943 201.323 203.919 201.598C203.914 202.215 204.134 202.813 204.538 203.279C204.942 203.745 205.502 204.048 206.113 204.131C206.403 204.202 206.705 204.209 206.997 204.149C207.289 204.09 207.565 203.966 207.804 203.787C208.042 203.609 208.238 203.379 208.377 203.115C208.516 202.851 208.595 202.56 208.607 202.262C208.607 201.962 208.548 201.666 208.432 201.39C208.316 201.113 208.147 200.863 207.933 200.653C207.72 200.443 207.467 200.278 207.189 200.167C206.911 200.056 206.613 200.001 206.314 200.006ZM206.256 200.533C207.612 200.967 207.783 203.035 206.329 202.801C204.875 202.566 204.673 200.513 206.256 200.533ZM164.599 196.189C165.012 196.013 165.476 195.996 165.9 196.143C166.325 196.291 166.679 196.591 166.894 196.986C167.049 197.357 167.055 197.774 166.911 198.149C166.767 198.525 166.483 198.83 166.119 199.002C165.934 199.102 165.732 199.164 165.523 199.186C165.314 199.207 165.103 199.187 164.902 199.127C164.496 199.006 164.154 198.729 163.953 198.356C163.751 197.983 163.706 197.545 163.827 197.139C163.948 196.733 164.226 196.391 164.599 196.189ZM177.237 186.956C177.65 186.779 178.115 186.763 178.539 186.91C178.963 187.058 179.318 187.358 179.532 187.752C179.688 188.124 179.694 188.54 179.55 188.916C179.406 189.292 179.122 189.597 178.758 189.769C178.574 189.903 178.364 189.997 178.14 190.044C177.917 190.091 177.687 190.089 177.464 190.039C177.241 189.989 177.032 189.892 176.85 189.755C176.669 189.617 176.518 189.442 176.41 189.242C176.301 189.041 176.237 188.82 176.221 188.592C176.205 188.365 176.238 188.137 176.318 187.923C176.398 187.709 176.523 187.515 176.684 187.354C176.845 187.193 177.039 187.068 177.252 186.988L177.237 186.956ZM405.663 269.58C405.846 266.156 407.269 262.916 409.665 260.464C412.061 258.012 415.267 256.516 418.686 256.254C422.104 255.992 425.501 256.982 428.243 259.04C430.985 261.098 432.885 264.084 433.588 267.439C439.264 267.504 444.923 268.067 450.5 269.12C453.091 269.892 453.551 271.516 450.216 272.823C444.368 274.974 438.323 276.544 432.168 277.512C431.035 279.593 429.398 281.355 427.406 282.636C425.414 283.918 423.131 284.678 420.768 284.846C418.406 285.015 416.039 284.586 413.885 283.6C411.731 282.614 409.86 281.102 408.444 279.203C404.595 279.179 391.055 278.707 388.899 275.849C388.131 274.792 389.009 273.725 390.141 273.037C395.082 271.013 400.33 269.844 405.663 269.58ZM433.648 268.217C434.043 270.638 433.8 273.12 432.944 275.419C439.003 274.436 444.959 272.907 450.741 270.848C447.856 269.371 436.917 268.476 433.648 268.217ZM409.796 279.14C411.139 280.665 412.815 281.86 414.695 282.631C416.575 283.403 418.607 283.731 420.634 283.59C422.661 283.449 424.628 282.843 426.383 281.818C428.138 280.794 429.633 279.379 430.752 277.682C423.812 278.687 416.808 279.174 409.796 279.14ZM431.838 275.596C433.115 272.589 433.24 269.218 432.19 266.126C431.139 263.033 428.987 260.436 426.143 258.829C424.627 257.934 422.944 257.358 421.197 257.136C419.451 256.914 417.678 257.051 415.986 257.537C414.294 258.024 412.719 258.851 411.358 259.967C409.996 261.084 408.877 262.466 408.068 264.03C406.956 266.089 406.407 268.405 406.475 270.745C406.542 273.084 407.225 275.364 408.454 277.356C416.284 277.4 424.104 276.811 431.838 275.596ZM405.645 270.355C402.968 270.699 391.347 272.582 390.178 274.9C391.966 276.818 404.668 277.303 407.481 277.164C406.284 275.094 405.651 272.746 405.645 270.355ZM269.534 571.178C274.499 571.878 279.513 572.167 284.525 572.04C284.571 572.033 284.614 572.011 284.646 571.978C284.678 571.944 284.698 571.9 284.703 571.854C284.708 571.807 284.696 571.761 284.671 571.721C284.646 571.682 284.609 571.652 284.565 571.637C279.599 570.946 274.586 570.657 269.574 570.775C269.528 570.781 269.485 570.803 269.453 570.837C269.421 570.871 269.4 570.914 269.396 570.961C269.391 571.007 269.402 571.054 269.427 571.093C269.453 571.132 269.49 571.162 269.534 571.178Z" fill="#A5A6F6"/>
<path fill-rule="evenodd" clip-rule="evenodd" d="M272.791 577.583C275.435 574.08 277.738 570.332 279.668 566.39C279.888 566.286 279.461 565.951 279.332 566.165C276.692 569.671 274.389 573.419 272.454 577.358C272.325 577.573 272.662 577.798 272.791 577.583ZM280.671 342.447C284.836 351.263 285.817 352.527 286.573 354.127C286.575 354.167 286.587 354.205 286.608 354.239C286.628 354.273 286.657 354.301 286.691 354.321C286.725 354.341 286.764 354.353 286.804 354.355C286.843 354.357 286.883 354.349 286.919 354.332C286.955 354.315 286.986 354.289 287.01 354.258C287.033 354.226 287.049 354.189 287.055 354.149C287.061 354.11 287.057 354.07 287.044 354.033C287.031 353.995 287.009 353.961 286.98 353.934C287.129 354.248 285.072 349.002 281.485 341.41C284.567 341.636 287.659 341.7 290.748 341.601C290.999 341.482 291.1 341.127 290.789 341.121C287.884 340.688 284.958 340.405 282.023 340.273C283.124 338.58 284.127 336.824 285.027 335.016C285.054 334.964 285.061 334.903 285.047 334.845C285.033 334.788 284.998 334.738 284.949 334.704C284.9 334.671 284.841 334.656 284.782 334.663C284.723 334.671 284.669 334.699 284.63 334.743C284.63 334.743 282.68 337.277 280.893 340.155C277.202 332.343 276.132 330.891 275.509 329.573C275.482 329.515 275.432 329.47 275.372 329.448C275.311 329.427 275.244 329.43 275.186 329.457C275.128 329.485 275.083 329.534 275.061 329.595C275.039 329.656 275.043 329.722 275.07 329.781C274.922 329.467 277.174 334.965 279.663 340.314C278.531 340.273 276.251 340.16 272.927 340.272C272.676 340.391 272.575 340.746 272.885 340.752C273.196 340.759 275.963 341.256 280.071 341.502C278.692 343.585 277.431 345.744 276.295 347.969C276.044 348.087 276.547 348.502 276.692 348.241C276.452 348.546 278.257 346.274 280.671 342.447ZM464.281 526.873C460.195 527.077 423.062 541.895 422.733 542.012C421.761 542.472 415.4 547.204 414.989 547.552C414.577 547.899 414.989 547.552 415.063 547.708C418.397 547.666 421.724 547.377 425.016 546.844C428.465 546.02 434.769 543.119 466.024 532.267C466.589 532 466.862 529.492 464.837 526.994C464.762 526.915 464.483 526.893 464.281 526.873ZM424.711 546.604L419.188 547.179C419.253 546.843 419.234 546.496 419.133 546.169C419.032 545.842 418.852 545.545 418.609 545.304C419.996 544.27 421.443 543.317 422.941 542.451C424.05 542.849 422.175 544.08 424.141 544.341C424.329 544.252 424.36 544.237 424.244 544.56C424.183 544.638 424.139 544.727 424.113 544.822C424.087 544.917 424.081 545.016 424.095 545.113C424.109 545.211 424.142 545.305 424.193 545.389C424.244 545.473 424.312 545.546 424.392 545.604C424.85 545.924 425.222 545.979 424.711 546.604ZM425.087 546.426C425.744 545.541 424.21 545.382 424.629 544.724C425.517 543.192 419.36 546.407 462.599 530.623C462.817 531.31 463.272 531.897 463.881 532.281L425.087 546.426ZM462.512 530.357C461.026 530.867 424.738 543.981 424.43 543.897C424.121 543.813 423.482 543.922 423.587 543.413C423.691 542.903 423.685 542.483 423.068 542.314C423.382 542.166 455.316 530.073 462.392 528.073C462.201 528.852 462.253 529.671 462.542 530.42L462.512 530.357ZM465.543 531.573C465.219 531.457 465.217 531.535 464.701 531.011C464.185 530.488 463.397 528.25 464.401 527.776C464.842 528.31 465.172 528.926 465.373 529.589C465.574 530.251 465.642 530.947 465.572 531.636L465.543 531.573ZM443.606 428.686C443.517 428.587 443.407 428.51 443.283 428.458C443.16 428.407 443.027 428.384 442.894 428.39C442.761 428.397 442.63 428.432 442.513 428.495C442.395 428.558 442.293 428.646 442.213 428.753C442.133 428.86 442.079 428.983 442.052 429.114C442.026 429.245 442.029 429.38 442.061 429.509C442.094 429.639 442.154 429.76 442.239 429.863C442.323 429.966 442.43 430.049 442.55 430.106C443.101 430.46 443.652 430.814 444.234 431.153C444.333 431.239 444.449 431.302 444.575 431.338C444.701 431.375 444.833 431.383 444.962 431.363C445.091 431.344 445.215 431.296 445.324 431.224C445.433 431.151 445.525 431.056 445.594 430.945C445.662 430.834 445.706 430.709 445.722 430.579C445.737 430.449 445.724 430.317 445.684 430.193C445.643 430.068 445.576 429.954 445.487 429.858C445.398 429.762 445.289 429.687 445.168 429.637C444.804 429.272 444.111 429.024 443.606 428.686ZM373.031 380.517C372.523 378.953 370.706 370.639 369.973 370.794C369.929 370.797 369.886 370.809 369.847 370.829C369.808 370.85 369.774 370.878 369.747 370.913C369.72 370.947 369.7 370.987 369.69 371.03C369.679 371.072 369.677 371.117 369.685 371.16C369.83 373.771 370.219 376.362 370.847 378.9C371.055 379.801 371.331 380.684 371.673 381.542C371.738 381.668 371.834 381.775 371.951 381.854C372.069 381.933 372.205 381.98 372.346 381.991C373.322 382.021 374.296 381.886 375.227 381.59C375.917 381.264 378.453 380.296 377.859 379.771C377.266 379.245 377.453 380.615 373.031 380.517ZM384.969 369.312L384.198 367.681C383.664 366.551 382.022 367.135 382.598 368.437L383.443 370.225C383.49 370.348 383.564 370.458 383.658 370.55C383.753 370.641 383.866 370.71 383.991 370.753C384.115 370.796 384.247 370.811 384.378 370.797C384.509 370.784 384.635 370.742 384.748 370.674C384.86 370.607 384.957 370.515 385.031 370.407C385.105 370.298 385.154 370.174 385.175 370.045C385.196 369.915 385.188 369.782 385.153 369.656C385.117 369.529 385.054 369.412 384.969 369.312ZM391.13 376.993C391.905 381.232 390.823 382.434 389.28 383.393C388.959 383.578 388.623 383.737 388.276 383.868C388.19 383.878 388.111 383.923 388.057 383.991C388.003 384.06 387.978 384.147 387.989 384.234C387.999 384.321 388.044 384.4 388.112 384.453C388.181 384.507 388.268 384.532 388.355 384.521C391.826 384.801 394.655 381.123 391.727 376.711C391.676 376.658 391.611 376.623 391.539 376.609C391.467 376.596 391.393 376.605 391.327 376.636C391.26 376.668 391.206 376.719 391.171 376.783C391.136 376.847 391.121 376.921 391.13 376.993ZM421.455 410.637C421.388 410.543 421.303 410.463 421.205 410.402C421.107 410.34 420.997 410.299 420.883 410.28C420.769 410.261 420.652 410.264 420.539 410.29C420.427 410.316 420.32 410.364 420.226 410.432C420.132 410.499 420.052 410.584 419.99 410.682C419.929 410.78 419.887 410.889 419.868 411.004C419.849 411.118 419.853 411.235 419.879 411.347C419.905 411.46 419.953 411.567 420.02 411.661C420.43 412.182 420.87 412.679 421.337 413.149C421.404 413.265 421.495 413.365 421.605 413.442C421.714 413.518 421.84 413.569 421.971 413.591C422.103 413.613 422.238 413.606 422.367 413.569C422.496 413.533 422.615 413.468 422.715 413.38C422.816 413.292 422.895 413.183 422.948 413.06C423.002 412.937 423.027 412.804 423.022 412.671C423.017 412.537 422.983 412.406 422.922 412.287C422.86 412.168 422.773 412.065 422.667 411.984C422.227 411.539 421.818 411.08 421.455 410.637ZM365.755 372.671C365.723 372.542 365.662 372.421 365.578 372.318C365.493 372.215 365.387 372.132 365.266 372.075C365.146 372.017 365.014 371.988 364.88 371.988C364.747 371.988 364.615 372.017 364.495 372.074C364.374 372.131 364.268 372.214 364.183 372.317C364.098 372.42 364.038 372.541 364.005 372.67C363.973 372.8 363.969 372.935 363.995 373.066C364.021 373.196 364.076 373.32 364.155 373.427L365 375.215C365.033 375.345 365.093 375.465 365.178 375.569C365.262 375.672 365.369 375.755 365.489 375.812C365.61 375.869 365.742 375.899 365.875 375.899C366.008 375.899 366.14 375.869 366.261 375.812C366.381 375.755 366.488 375.672 366.573 375.569C366.657 375.466 366.718 375.346 366.75 375.216C366.783 375.087 366.786 374.952 366.76 374.821C366.734 374.69 366.68 374.567 366.6 374.459C366.281 373.882 365.999 373.284 365.755 372.671ZM675.86 386.925C675.86 386.925 675.686 387.046 675.86 386.925V386.925Z" fill="#A5A6F6"/>
<path fill-rule="evenodd" clip-rule="evenodd" d="M690.567 377.521C686.284 377.472 678.668 382.797 675.132 385.465C672.931 384.537 670.533 384.169 668.155 384.395C665.777 384.621 663.492 385.434 661.506 386.761C658.407 389.299 659.605 394.029 661.481 397.594C659.03 398.254 656.449 399.127 654.087 399.975C653.949 399.196 654.085 397.942 653.571 397.34C653.353 397.142 653.094 396.993 652.813 396.904C652.532 396.815 652.235 396.787 651.942 396.824C651.65 396.86 651.368 396.959 651.118 397.114C650.867 397.269 650.652 397.476 650.489 397.722C650.099 398.517 649.784 399.346 649.549 400.2C649.03 399.102 649.11 396.915 647.879 397.151C646.647 397.388 644.68 402.078 644.226 403.636C636.647 406.247 629.377 409.681 622.547 413.878C613.433 419.012 606.428 427.201 602.769 436.999C620.168 375.051 622.662 336.954 604.451 299.544C586.24 262.134 533.053 265.31 514.445 273.526C496.386 281.52 482.624 300.073 481.682 300.517C467.038 311.274 422.537 326.58 415.408 334.476C413.638 330.45 411.057 326.831 407.825 323.848C404.593 320.865 400.78 318.581 396.624 317.139C388.918 313.987 379.814 315.755 371.726 319.999C360.212 326.091 350.868 336.53 349.865 349.515C349.495 353.741 350.112 357.995 351.668 361.942C352.127 362.915 357.679 379.864 368.546 389.544C371.155 392.062 374.313 393.94 377.771 395.029C381.23 396.119 384.894 396.391 388.476 395.824C386.58 404.944 385.249 414.173 384.491 423.457C384.482 425.956 385.723 426.713 387.134 426.046C388.546 425.379 390.251 424.113 391.598 423.554C392.21 430.211 393.936 447.509 395.421 453.984C391.023 461.375 387.685 469.347 385.503 477.667C381.189 492.906 382.326 506.684 374.608 517.967L372.301 521.206C370.446 506.233 366.355 476.697 363.422 478.044C360.49 479.391 365.094 507.495 368.506 526.415C364.934 531.364 363.288 534.214 364.084 540.286C364.161 541.879 364.552 543.442 365.233 544.885C365.915 546.328 366.874 547.622 368.056 548.694C368.459 549.026 368.941 549.25 369.455 549.343C369.97 549.436 370.499 549.395 370.993 549.225C371.37 549.047 371.207 548.702 371.254 551.482C370.827 551.856 370.466 552.299 370.184 552.793L350.75 550.73C350.405 550.893 354.453 548.251 268.268 603.59C265.935 603.119 263.478 602.63 260.899 602.044C199.197 588.252 328.728 480.965 317.861 427.42C308.142 379.474 243.279 399.526 237.708 352.805C232.137 306.084 325.697 275.698 406.462 231.631C487.227 187.564 480.658 88.1241 399.567 73.0144C318.476 57.9046 285.659 149.28 278.462 172.061C271.264 194.842 264.12 223.584 215.578 243.984C167.037 264.385 108.6 301.856 118.371 381.592C122.983 419.786 143.773 438.286 167.096 449.717C169.645 442.406 173.967 435.841 179.676 430.611C183.122 427.832 187.218 426.51 190.139 429.851C195.56 435.963 192.166 451.037 189.771 458.884C208.042 465.065 224.922 469.601 234.655 477.936C250.951 491.959 219.262 523.01 208.167 540.955C197.072 558.899 187.81 602.573 217.541 626.674C219.796 628.53 222.151 630.262 224.596 631.86C194.725 651 193.626 651.519 193.402 651.855C193.177 652.192 193.538 652.712 193.906 652.922L193.686 653.026C197.992 654.829 337.22 734.347 416.753 770.609L417.752 770.368C426.291 759.848 580.744 567.87 567.246 566.917C567.246 566.917 382.086 554.346 377.625 553.921C377.728 552.728 377.739 551.53 377.659 550.336C377.826 550.241 377.955 550.091 378.024 549.911C378.093 549.732 378.098 549.534 378.038 549.351L377.237 547.657C379.494 547.397 381.648 544.076 382.549 541.923C384.323 537.555 385.234 527.3 388.213 524.588C394.341 519.577 400.2 514.246 405.767 508.619C428.771 484.933 434.836 467.715 438.056 443.014C438.669 439.103 438.893 435.14 438.723 431.185C449.451 435.502 460.967 437.514 472.522 437.092C461.002 478.341 473.761 495.032 487.71 500.837C500.459 506.135 512.503 496.454 514.404 494.711C520.986 508.642 540.307 537.353 543.343 539.718C545.004 541.121 542.911 543.76 544.022 547.572C544.576 549.513 545.683 551.252 547.207 552.576C548.732 553.9 550.609 554.751 552.61 555.027C557.13 555.578 563.119 552.902 559.152 550.517C557.907 549.888 556.603 549.385 555.258 549.017C556.301 548.87 557.483 548.772 558.914 548.633C572.486 547.709 574.955 549.037 576.775 547.448C577.027 547.249 577.231 546.998 577.374 546.711C577.517 546.425 577.596 546.11 577.604 545.79C577.936 545.845 578.276 545.829 578.602 545.744C578.928 545.659 579.232 545.505 579.495 545.294C579.757 545.083 579.972 544.819 580.126 544.52C580.279 544.22 580.368 543.891 580.386 543.555C580.397 543.301 580.346 543.049 580.238 542.819C580.129 542.589 579.966 542.39 579.763 542.237C579.844 541.379 579.603 540.522 579.087 539.832C577.753 537.008 562.603 532.883 559.547 532.101C558.378 528.815 556.75 521.065 552.147 500.597C584.942 514.615 641.038 447.088 644.159 443.541C645.144 443.92 666.367 420.039 668.671 416.955C668.357 417.103 695.104 385.662 693.722 379.407C693.1 378.09 691.852 377.643 690.567 377.521ZM435.008 150.793C435.535 150.564 436.13 150.552 436.666 150.758C437.201 150.965 437.634 151.374 437.871 151.897C438.001 152.151 438.079 152.428 438.101 152.713C438.123 152.998 438.088 153.284 437.998 153.555C437.909 153.826 437.766 154.076 437.578 154.292C437.39 154.507 437.162 154.683 436.905 154.809C436.644 154.927 436.362 154.993 436.075 155.003C435.788 155.012 435.502 154.965 435.233 154.864C434.964 154.763 434.718 154.61 434.509 154.413C434.299 154.217 434.13 153.981 434.012 153.72C433.885 153.462 433.81 153.182 433.792 152.896C433.773 152.609 433.811 152.322 433.904 152.05C433.996 151.778 434.141 151.527 434.331 151.312C434.52 151.096 434.751 150.92 435.008 150.793ZM391.402 104.388C391.656 104.268 391.931 104.2 392.212 104.188C392.492 104.175 392.772 104.218 393.036 104.315C393.3 104.412 393.542 104.561 393.747 104.752C393.953 104.943 394.119 105.173 394.234 105.429C394.397 105.683 394.503 105.968 394.546 106.265C394.59 106.563 394.569 106.866 394.486 107.156C394.403 107.445 394.259 107.713 394.064 107.942C393.869 108.171 393.628 108.356 393.356 108.484C393.084 108.613 392.788 108.682 392.487 108.687C392.186 108.692 391.888 108.633 391.612 108.514C391.336 108.394 391.088 108.217 390.886 107.995C390.683 107.772 390.531 107.509 390.438 107.223C390.315 106.974 390.243 106.702 390.225 106.425C390.207 106.148 390.243 105.869 390.333 105.606C390.422 105.343 390.563 105.1 390.746 104.891C390.929 104.682 391.152 104.511 391.402 104.388ZM373.314 218.816C373.07 218.881 372.812 218.859 372.583 218.753C372.355 218.647 372.171 218.464 372.063 218.236C371.955 218.009 371.931 217.75 371.994 217.507C372.058 217.263 372.205 217.049 372.409 216.902C372.672 216.778 372.972 216.764 373.245 216.861C373.518 216.959 373.741 217.161 373.865 217.424C373.988 217.686 374.003 217.986 373.905 218.259C373.808 218.532 373.605 218.755 373.343 218.879L373.314 218.816ZM324.062 136.663C323.469 135.408 326.31 133.298 327.602 132.458C329.74 131.079 332.05 129.988 334.473 129.212C334.661 125.949 335.265 122.723 336.27 119.613C336.677 118.768 337.184 118.298 338.121 118.738C340.893 120.933 343.265 123.591 345.133 126.593C350.589 125.551 358.462 124.671 355.762 129.515C354.937 131.018 353.154 133.012 351.346 135.44C352.812 137.844 354.1 140.352 355.199 142.945C355.747 144.106 356.264 146.011 355.207 146.779C353.046 148.298 349.685 145.895 344.471 144.444C341.756 147.876 336.503 155.116 334.582 151.457C333.462 148.091 332.947 144.553 333.061 141.008C327.838 139.293 324.762 138.712 324.092 136.726L324.062 136.663ZM348.184 195.842C349.211 198.036 349.656 200.457 349.475 202.872C349.294 205.287 348.493 207.615 347.15 209.631C345.807 211.646 343.967 213.281 341.807 214.379C339.648 215.476 337.242 215.997 334.822 215.894L346.234 192.772C347.028 193.726 347.703 194.773 348.245 195.89L348.184 195.842ZM345.309 191.789C342.113 198.02 337.991 206.76 334.017 215.814C333.365 215.748 332.718 215.629 332.085 215.46C335.514 205.742 338.418 195.237 340.165 188.617C342.102 189.321 343.874 190.418 345.37 191.837L345.309 191.789ZM339.163 188.284C338.545 190.226 333.438 207.683 331.177 215.083C329.256 214.486 327.481 213.495 325.965 212.173C329.103 206.469 333.33 198.6 337.863 189.512L338.563 188.069L339.163 188.284ZM329.429 189.045C331.945 187.853 334.761 187.445 337.511 187.874L334.57 193.102C333.922 194.329 329.129 203.924 325.328 211.476C323.786 209.865 322.647 207.913 322.004 205.777C321.361 203.642 321.233 201.385 321.63 199.191C322.027 196.997 322.938 194.928 324.289 193.153C325.639 191.379 327.391 189.949 329.4 188.982L329.429 189.045ZM296.754 198.188C297.129 197.996 297.553 197.92 297.971 197.97C298.39 198.02 298.784 198.194 299.103 198.469C299.422 198.744 299.652 199.109 299.763 199.516C299.873 199.922 299.86 200.353 299.725 200.752C299.589 201.151 299.337 201.501 299.002 201.756C298.666 202.011 298.262 202.161 297.841 202.185C297.421 202.209 297.002 202.107 296.64 201.891C296.277 201.676 295.987 201.358 295.807 200.977C295.613 200.484 295.614 199.937 295.81 199.445C296.005 198.954 296.381 198.555 296.859 198.33L296.754 198.188ZM301.908 253.856C302.652 253.535 303.475 253.439 304.273 253.582C305.071 253.725 305.809 254.099 306.396 254.659C306.982 255.218 307.391 255.938 307.571 256.729C307.752 257.519 307.695 258.345 307.409 259.103C307.123 259.862 306.62 260.52 305.963 260.994C305.306 261.469 304.523 261.74 303.713 261.773C302.903 261.805 302.102 261.599 301.408 261.18C300.714 260.76 300.16 260.145 299.813 259.413C299.363 258.397 299.331 257.245 299.723 256.205C300.115 255.166 300.9 254.322 301.908 253.856ZM248.91 268.072C250.259 267.435 251.4 269.851 250.051 270.488C248.702 271.126 247.529 268.725 248.91 268.072ZM154.084 397.724C153.947 397.82 153.791 397.886 153.627 397.916C153.462 397.946 153.293 397.939 153.132 397.897C152.97 397.854 152.82 397.777 152.691 397.67C152.562 397.563 152.459 397.429 152.387 397.278C152.316 397.127 152.278 396.962 152.278 396.795C152.277 396.628 152.312 396.462 152.382 396.31C152.452 396.159 152.554 396.024 152.682 395.916C152.81 395.808 152.959 395.729 153.12 395.685C153.257 395.588 153.413 395.523 153.577 395.493C153.742 395.463 153.911 395.469 154.073 395.512C154.234 395.554 154.385 395.632 154.513 395.739C154.642 395.845 154.746 395.979 154.817 396.13C154.888 396.281 154.926 396.446 154.927 396.614C154.928 396.781 154.892 396.946 154.822 397.098C154.752 397.25 154.65 397.385 154.522 397.493C154.395 397.601 154.245 397.68 154.084 397.724ZM279.732 489.03C279.287 489.181 278.808 489.2 278.354 489.084C277.899 488.968 277.487 488.723 277.168 488.379C276.85 488.034 276.638 487.605 276.558 487.142C276.479 486.68 276.535 486.204 276.72 485.772C276.905 485.341 277.211 484.973 277.601 484.712C277.991 484.45 278.448 484.308 278.917 484.301C279.387 484.295 279.848 484.424 280.245 484.674C280.642 484.924 280.959 485.283 281.156 485.709C281.404 486.339 281.394 487.041 281.127 487.663C280.86 488.285 280.359 488.776 279.732 489.03ZM188.034 275.687C188.461 275.478 188.94 275.4 189.41 275.464C189.881 275.528 190.322 275.731 190.677 276.046C191.033 276.361 191.286 276.775 191.406 277.235C191.525 277.695 191.505 278.18 191.348 278.628C191.191 279.076 190.904 279.468 190.524 279.753C190.144 280.038 189.688 280.203 189.213 280.228C188.739 280.253 188.268 280.136 187.86 279.892C187.452 279.649 187.126 279.289 186.923 278.86C186.655 278.291 186.62 277.639 186.828 277.046C187.036 276.452 187.469 275.964 188.034 275.687ZM243.082 387.492C243.223 387.8 243.274 388.142 243.227 388.477C243.18 388.813 243.038 389.128 242.817 389.385C242.596 389.643 242.306 389.831 241.982 389.928C241.657 390.025 241.311 390.027 240.985 389.934C240.66 389.84 240.368 389.655 240.144 389.4C239.921 389.145 239.775 388.832 239.724 388.496C239.674 388.161 239.721 387.819 239.859 387.509C239.998 387.2 240.222 386.937 240.506 386.752C240.718 386.63 240.953 386.554 241.196 386.528C241.44 386.502 241.686 386.526 241.919 386.6C242.152 386.674 242.367 386.795 242.551 386.956C242.735 387.117 242.884 387.315 242.987 387.536L243.082 387.492ZM265.696 433.491C266.882 431.127 270.271 423.922 272.616 424.58C274.96 425.238 274.955 428.963 276.781 433.396C281.049 433.414 289.762 433.173 287.887 436.515C285.76 439.173 283.214 441.465 280.347 443.301C281.963 448.102 283.091 450.409 281.925 451.92C281.095 452.926 277.838 452.124 276.574 451.723C274.206 451.081 271.939 450.111 269.84 448.841C267.137 450.541 264.241 451.909 261.212 452.917C260.37 453.085 259.642 453.006 259.443 452.179C258.973 450.291 261.129 444.782 261.838 442.951C260.177 441.548 256.143 437.965 255.957 435.866C255.728 432.942 261.065 433.76 265.602 433.535L265.696 433.491ZM207.741 337.22C208.4 336.909 208.968 337.217 209.259 338.077C209.702 340.715 209.757 343.404 209.422 346.059C211.433 346.832 213.331 347.871 215.066 349.149C221.064 353.722 215.976 354.245 208.861 355.918C208.408 358.904 207.396 361.778 205.878 364.389C203.642 367.211 200.078 361.372 197.931 358.127C192.959 359.056 189.519 360.873 187.764 359.515C186.01 358.156 191.497 352.225 193.027 350.428C191.325 347.394 187.99 343.827 190.747 342.678C193.872 342.212 197.062 342.464 200.075 343.414C202.287 340.956 204.874 338.866 207.741 337.22ZM209.185 443.764C208.862 443.986 208.494 444.135 208.108 444.201C207.721 444.266 207.325 444.248 206.947 444.145C206.568 444.043 206.217 443.86 205.916 443.608C205.615 443.357 205.373 443.043 205.206 442.689C205.038 442.334 204.95 441.948 204.946 441.556C204.943 441.164 205.025 440.776 205.186 440.419C205.347 440.061 205.584 439.743 205.881 439.487C206.177 439.23 206.525 439.041 206.902 438.932C207.225 438.71 207.593 438.561 207.979 438.495C208.365 438.429 208.762 438.448 209.14 438.551C209.518 438.653 209.87 438.836 210.171 439.088C210.471 439.339 210.714 439.653 210.881 440.007C211.049 440.362 211.137 440.748 211.14 441.14C211.144 441.532 211.062 441.92 210.901 442.277C210.739 442.635 210.502 442.953 210.206 443.209C209.91 443.466 209.561 443.655 209.185 443.764ZM146.711 357.342C146.582 357.368 146.448 357.35 146.33 357.291C146.212 357.232 146.118 357.135 146.061 357.016C146.005 356.897 145.99 356.762 146.019 356.634C146.048 356.505 146.12 356.39 146.222 356.307C152.87 352.59 160.579 348.68 167.45 345.434C159.826 344.123 152.086 343.612 144.356 343.91C144.2 343.933 144.041 343.895 143.911 343.805C143.782 343.716 143.691 343.58 143.657 343.426C143.623 343.272 143.649 343.111 143.729 342.975C143.809 342.839 143.937 342.738 144.088 342.693C151.256 339.4 159.093 337.826 166.977 338.097C160.843 335.911 154.587 334.088 148.239 332.635C148.102 332.601 147.982 332.52 147.9 332.405C147.818 332.29 147.779 332.15 147.792 332.009C147.804 331.869 147.867 331.737 147.968 331.639C148.069 331.54 148.202 331.481 148.343 331.473C157.456 330.287 166.704 330.64 175.7 332.517C184.51 334.221 192.964 337.417 200.697 341.968C200.831 342.251 200.652 342.604 200.33 342.41C192.621 337.901 184.197 334.742 175.424 333.07C167.596 331.552 159.588 331.186 151.653 331.981C154.818 332.75 167.677 335.924 170.22 338.138C170.708 338.522 170.303 339.289 169.621 339.227C165.389 338.944 161.138 339.161 156.957 339.876C153.671 340.375 150.453 341.251 147.368 342.487C151.791 342.508 165.586 342.707 169.418 344.888C169.517 344.947 169.599 345.034 169.652 345.137C169.706 345.24 169.729 345.357 169.72 345.473C169.711 345.588 169.67 345.7 169.601 345.793C169.532 345.887 169.438 345.96 169.331 346.003C168.985 346.166 160.326 350.257 151.282 354.914C163.116 351.856 179.242 349.111 191.377 351.322C191.717 351.392 191.644 351.887 191.241 351.847C178.144 349.63 159.092 353.412 146.711 357.342ZM354.96 338.205C361.849 325.087 382.05 312.934 396.154 318.743C400.149 320.117 403.814 322.309 406.914 325.179C410.014 328.049 412.482 331.534 414.16 335.411C416.698 342.676 416.789 350.571 414.42 357.892C414.122 358.724 413.855 358.159 413.91 357.788C414.083 356.758 414.022 355.701 413.73 354.698C413.438 353.695 412.924 352.771 412.225 351.994C411.526 351.217 410.66 350.609 409.693 350.213C408.726 349.818 407.682 349.646 406.64 349.71C399.435 349.813 402.346 360.604 398.594 363.873C395.348 366.749 392.609 357.298 390.12 351.297C389.296 348.531 387.458 346.179 384.974 344.71C381.047 343.145 376.809 342.519 372.597 342.882C365.119 343.32 357.873 345.647 351.538 349.646C351.891 345.639 353.055 341.747 354.96 338.205ZM369.625 388.497C358.667 378.706 353.248 361.387 353.248 361.387C351.942 357.968 351.378 354.31 351.593 350.656C358.048 346.764 365.401 344.612 372.936 344.411C376.929 344.078 380.945 344.662 384.679 346.116C389.773 348.775 390.37 358.164 394.294 363.87C395.812 366.108 397.668 367.112 399.636 365.184C403.847 361.506 401.12 351.511 406.803 351.436C412.486 351.361 414.529 357.879 410.104 362.81C408.4 364.728 409.552 366.678 411.272 366.096C412.119 365.695 413.56 364.439 415.138 361.199C417.141 355.804 418.004 350.052 417.672 344.306C422.47 343.166 427.398 342.67 432.326 342.832C439.112 342.735 447.375 343.167 454.021 343.75C446.978 349.392 441.685 356.922 438.76 365.459C435.835 373.996 435.399 383.189 437.502 391.965C436.31 392.529 435.604 390.79 434.491 390.548C433.379 390.306 433.174 391.17 432.349 391.944C432.004 391.162 431.47 390.478 430.795 389.953C429.935 388.133 427.459 390.608 426 391.988C425.653 391.201 425.17 390.481 424.573 389.861C424.197 387.198 420.542 390.346 418.5 392.116C418.257 391.142 417.823 390.225 417.225 389.418C416.585 387.494 413.149 390.538 411.797 391.982C411.445 390.867 410.878 389.831 410.127 388.934C408.67 388.125 405.242 392.892 404.506 391.82C404.115 390.952 403.884 390.022 403.822 389.073C403.451 386.907 401.41 389.329 400.598 389.559C400.577 389.59 400.549 389.614 400.516 389.629C400.483 389.645 400.446 389.651 400.41 389.648L400.232 389.272C402.516 387.313 404.538 385.068 406.248 382.592C408.277 383.79 410.672 384.213 412.989 383.782C415.124 383.456 417.119 382.519 418.735 381.085C420.35 379.652 421.517 377.782 422.094 375.701C422.672 373.62 422.636 371.416 421.991 369.355C421.346 367.294 420.119 365.463 418.457 364.083C418.294 363.737 417.767 364.409 418.028 364.554C419.002 365.564 419.762 366.761 420.262 368.072C420.762 369.383 420.991 370.782 420.937 372.185C420.882 373.587 420.545 374.964 419.945 376.232C419.345 377.501 418.494 378.635 417.445 379.566L407.644 378.479C407.272 378.424 407.393 378.597 406.234 380.45C404.217 378.883 402.821 376.652 402.294 374.154C401.768 371.656 402.144 369.051 403.356 366.804C404.853 364.298 407.117 362.34 409.813 361.22C409.866 361.17 409.902 361.104 409.916 361.032C409.929 360.96 409.92 360.886 409.888 360.82C409.857 360.754 409.806 360.7 409.742 360.664C409.678 360.629 409.604 360.615 409.532 360.624C406.545 361.617 403.973 363.575 402.221 366.189C400.699 368.709 400.169 371.705 400.733 374.595C401.296 377.485 402.914 380.062 405.272 381.825C401.205 387.617 395.501 392.062 388.891 394.592C385.426 395.177 381.872 394.93 378.522 393.871C375.172 392.811 372.122 390.969 369.625 388.497ZM431.637 393.278C432.377 392.712 433.049 392.06 433.636 391.336C434.779 390.182 435.707 393.12 437.479 392.322C437.861 393.945 438.222 395.194 438.468 395.96C436.742 396.124 435.08 396.18 433.433 396.267C432.995 395.183 432.388 394.174 431.637 393.278ZM431.31 392.588C431.31 392.588 431.236 392.431 431.046 391.216C431.31 391.574 431.648 391.873 432.035 392.092L431.296 392.556L431.31 392.588ZM431.278 393.332C431.609 394.448 432.109 395.506 432.761 396.47C430.135 396.597 427.651 396.62 425.167 396.642C424.885 396.05 424.491 395.52 424.006 395.079C425.449 394.397 429.184 389.793 429.73 390.38C430.276 390.966 429.947 393.194 431.278 393.332ZM423.589 395.008C423.814 395.501 424.119 395.953 424.49 396.347C423.497 396.356 419.339 396.248 418.284 396.209C417.953 395.546 417.533 394.931 417.037 394.381C418.795 393.233 420.459 391.946 422.012 390.534C422.232 390.43 423.555 389.575 423.518 389.822C423.822 390.791 421.867 394.938 423.589 395.008ZM417.416 396.159C415.416 396.068 413.493 395.978 411.945 395.788C411.652 395.113 411.222 394.506 410.681 394.006C411.228 393.853 411.706 393.519 412.037 393.059C413.17 391.721 414.549 390.613 416.099 389.796C415.797 390.875 415.626 391.987 415.591 393.107C415.975 394.242 416.598 395.283 417.416 396.159ZM411.031 395.721L406.555 395.265C406.187 394.301 405.65 393.412 404.969 392.637C406.076 392.382 408.191 390.117 409.428 389.648C409.224 390.685 409.092 391.735 409.032 392.79C409.541 393.866 410.215 394.855 411.031 395.721ZM410.231 390.535C410.448 391.197 410.747 391.829 411.12 392.417C410.901 392.521 410.342 393.207 410.116 392.892C409.89 392.576 410.032 391.089 410.231 390.535ZM417.028 390.624C417.299 391.247 417.662 391.826 418.107 392.34C417.708 392.746 417.244 393.082 416.734 393.334C416.734 393.334 416.401 392.954 417.028 390.624ZM424.534 390.916C424.818 391.412 425.174 391.865 425.59 392.259C425.078 392.792 424.533 393.293 423.958 393.759C424.068 393.016 424.229 392.058 424.519 390.884L424.534 390.916ZM404.163 392.557C404.593 393.507 405.153 394.392 405.828 395.186C405.139 395.112 404.452 395.014 403.77 394.892L400.558 389.962C401.342 389.592 402.751 388.35 402.974 388.821C403.196 389.291 402.857 391.985 404.149 392.526L404.163 392.557ZM406.875 380.914C407.181 380.424 407.489 379.857 407.765 379.304L416.668 380.279C415.283 381.31 413.634 381.929 411.911 382.064C410.189 382.198 408.464 381.843 406.935 381.039L406.875 380.914ZM386.436 424.649C385.579 424.785 386.737 416.026 386.868 415.004C387.235 411.799 389.245 396.803 389.428 395.566C392.093 394.493 394.62 393.106 396.955 391.434C406.232 409.77 413.235 415.902 420.738 421.223C418.325 421.557 416.651 423.538 414.488 423.753C411.469 424.105 409.785 420.296 405.916 421.855C403.593 423.307 401.616 425.249 400.124 427.546C399.44 428.292 399.088 428.036 398.691 427.763C397.378 425.788 395.926 423.909 394.346 422.14C391.732 420.344 388.148 424.455 386.436 424.649ZM350.791 551.708L369.824 553.654C369.346 554.876 368.758 556.053 368.069 557.169C366.261 559.597 363.291 559.81 364.164 561.739C353.088 573.304 344.006 606.799 379.689 616.613C425.278 629.115 467.452 622.776 445.637 665.549C439.708 677.369 429.495 680.851 414.87 678.895C398.762 676.642 382.109 641.067 359.951 624.71C323.104 597.486 320.82 613.609 269.965 604.094L350.791 551.708ZM456.624 662.891C456.583 662.911 456.538 662.922 456.493 662.924C456.447 662.926 456.402 662.92 456.359 662.904C456.316 662.889 456.276 662.865 456.243 662.835C456.209 662.804 456.182 662.767 456.162 662.726C456.143 662.685 456.131 662.64 456.129 662.594C456.127 662.549 456.134 662.503 456.149 662.461C456.164 662.418 456.188 662.378 456.219 662.344C456.249 662.311 456.286 662.283 456.328 662.264C456.4 662.255 456.474 662.269 456.538 662.304C456.602 662.339 456.653 662.394 456.684 662.46C456.715 662.526 456.725 662.6 456.711 662.672C456.698 662.744 456.662 662.81 456.609 662.86L456.624 662.891ZM445.007 679.893C444.887 679.979 444.75 680.039 444.605 680.067C444.459 680.094 444.31 680.089 444.167 680.053C444.023 680.016 443.89 679.948 443.776 679.854C443.662 679.76 443.57 679.642 443.507 679.508C443.443 679.374 443.411 679.228 443.41 679.08C443.41 678.932 443.442 678.786 443.505 678.652C443.567 678.518 443.659 678.4 443.772 678.305C443.886 678.21 444.019 678.142 444.162 678.104C444.416 677.984 444.707 677.97 444.971 678.065C445.236 678.16 445.451 678.355 445.571 678.609C445.691 678.863 445.705 679.154 445.611 679.418C445.516 679.682 445.32 679.898 445.066 680.018L445.007 679.893ZM403.56 696.788C403.441 695.705 403.507 694.609 403.756 693.548C401.425 692.27 400.119 691.698 402.625 690.667C403.367 690.381 404.144 690.195 404.935 690.113C406.14 686.166 406.668 686.147 408.353 689.956C409.129 689.974 410.959 690.03 411.538 690.524C412.117 691.018 410.694 692.151 409.728 693.029C410.084 693.782 410.928 696.3 410.206 696.641C409.485 696.982 408.528 696.014 407.024 695.266C405.901 696.219 403.996 698.117 403.619 696.913L403.56 696.788ZM384.268 657.01C384.148 657.097 384.011 657.156 383.865 657.184C383.72 657.211 383.571 657.207 383.427 657.17C383.284 657.133 383.151 657.065 383.037 656.971C382.922 656.877 382.831 656.759 382.767 656.625C382.704 656.491 382.671 656.345 382.671 656.197C382.671 656.05 382.703 655.903 382.766 655.769C382.828 655.635 382.92 655.517 383.033 655.422C383.147 655.327 383.28 655.259 383.423 655.222C383.677 655.102 383.968 655.088 384.232 655.182C384.496 655.277 384.712 655.473 384.832 655.726C384.952 655.98 384.966 656.271 384.871 656.536C384.777 656.8 384.581 657.016 384.327 657.135L384.268 657.01ZM324.875 629.423C324.756 629.51 324.618 629.569 324.473 629.597C324.327 629.625 324.178 629.62 324.035 629.583C323.891 629.546 323.758 629.478 323.644 629.384C323.53 629.29 323.438 629.172 323.375 629.038C323.312 628.905 323.279 628.758 323.278 628.611C323.278 628.463 323.31 628.316 323.373 628.182C323.435 628.048 323.527 627.93 323.641 627.835C323.754 627.741 323.887 627.672 324.03 627.635C324.15 627.548 324.288 627.489 324.433 627.461C324.578 627.433 324.728 627.438 324.871 627.475C325.014 627.511 325.148 627.579 325.262 627.673C325.376 627.768 325.468 627.886 325.531 628.02C325.594 628.153 325.627 628.299 325.627 628.447C325.628 628.595 325.595 628.741 325.533 628.875C325.47 629.009 325.379 629.128 325.265 629.223C325.151 629.317 325.018 629.386 324.875 629.423ZM303.076 615.775C302.957 615.861 302.819 615.921 302.674 615.948C302.529 615.976 302.379 615.971 302.236 615.935C302.092 615.898 301.959 615.83 301.845 615.736C301.731 615.642 301.639 615.524 301.576 615.39C301.513 615.256 301.48 615.11 301.479 614.962C301.479 614.814 301.511 614.668 301.574 614.534C301.637 614.4 301.728 614.281 301.842 614.187C301.955 614.092 302.088 614.024 302.231 613.986C302.347 613.895 302.481 613.829 302.624 613.795C302.767 613.761 302.916 613.758 303.06 613.788C303.205 613.817 303.341 613.878 303.459 613.966C303.577 614.054 303.674 614.167 303.744 614.296C303.814 614.426 303.855 614.57 303.863 614.717C303.871 614.864 303.847 615.011 303.792 615.147C303.738 615.284 303.654 615.407 303.546 615.508C303.439 615.609 303.31 615.684 303.17 615.73L303.076 615.775ZM263.31 626.887C263.43 626.8 263.567 626.74 263.712 626.713C263.858 626.685 264.007 626.69 264.151 626.727C264.294 626.763 264.427 626.831 264.541 626.925C264.655 627.02 264.747 627.138 264.81 627.271C264.874 627.405 264.907 627.551 264.907 627.699C264.907 627.847 264.875 627.993 264.812 628.127C264.75 628.261 264.658 628.38 264.545 628.474C264.431 628.569 264.298 628.638 264.155 628.675C264.031 628.754 263.891 628.805 263.745 628.824C263.598 628.843 263.45 628.83 263.31 628.785C263.169 628.741 263.04 628.666 262.932 628.566C262.824 628.466 262.739 628.344 262.683 628.208C262.627 628.071 262.602 627.925 262.609 627.777C262.616 627.63 262.656 627.487 262.724 627.356C262.793 627.226 262.89 627.113 263.007 627.024C263.125 626.935 263.26 626.873 263.404 626.842L263.31 626.887ZM212.989 573.906C213.793 572.249 214.895 570.753 216.239 569.493C214.312 565.414 212.96 563.366 217.333 564.255C218.641 564.579 219.902 565.066 221.088 565.705C222.337 564.576 223.731 563.621 225.234 562.864C225.673 562.656 226.074 562.774 226.25 563.228C226.479 565.101 226.39 566.998 225.985 568.841C227.555 569.821 228.871 571.159 229.825 572.745C230.269 574.416 227.216 574.208 225.004 574.562C224.631 575.966 223.598 580.522 222.27 580.229C220.942 579.935 220.556 577.738 219.186 575.162C216.946 575.376 212.462 575.959 213.083 573.862L212.989 573.906ZM214.517 607.033C214.637 606.946 214.774 606.887 214.92 606.859C215.065 606.832 215.214 606.836 215.358 606.873C215.501 606.91 215.634 606.978 215.748 607.072C215.863 607.166 215.954 607.284 216.018 607.418C216.081 607.552 216.114 607.698 216.114 607.846C216.114 607.993 216.082 608.14 216.019 608.274C215.957 608.408 215.865 608.526 215.752 608.621C215.638 608.716 215.505 608.784 215.362 608.821C215.238 608.901 215.098 608.951 214.952 608.971C214.806 608.99 214.657 608.976 214.517 608.932C214.376 608.887 214.248 608.812 214.139 608.713C214.031 608.613 213.946 608.49 213.89 608.354C213.834 608.218 213.809 608.071 213.816 607.924C213.823 607.777 213.863 607.633 213.931 607.503C214 607.373 214.097 607.259 214.214 607.17C214.332 607.081 214.467 607.019 214.611 606.989L214.517 607.033ZM566.346 568.263C561.934 588.654 429.784 752.863 416.902 768.812C355.734 740.797 254.662 684.777 195.506 652.166L225.82 632.663C260.977 654.929 288.366 632.971 309.705 635.247C333.722 637.831 347.383 641.892 363.466 661.311C385.338 687.705 381.765 705.243 408.75 704.199C434.586 703.16 475.583 679.301 478.865 641.408C482.146 603.515 442.094 606.549 405.123 607.168C368.151 607.788 364.504 586.178 366.096 578.825C367.319 573.225 369.244 567.802 371.826 562.686C373.375 561.96 374.706 560.842 375.688 559.443C376.669 558.043 377.267 556.41 377.421 554.708C382.026 554.95 558.336 567.635 566.441 568.219L566.346 568.263ZM467.738 660.097C467.779 660.077 467.824 660.066 467.869 660.064C467.915 660.062 467.96 660.068 468.003 660.084C468.046 660.099 468.085 660.123 468.119 660.153C468.153 660.184 468.18 660.221 468.2 660.262C468.219 660.303 468.23 660.348 468.233 660.394C468.235 660.439 468.228 660.485 468.213 660.527C468.197 660.57 468.174 660.61 468.143 660.644C468.112 660.677 468.075 660.705 468.034 660.724C467.992 660.742 467.947 660.751 467.901 660.751C467.856 660.75 467.811 660.741 467.768 660.724C467.726 660.706 467.688 660.681 467.656 660.648C467.624 660.616 467.598 660.578 467.581 660.536C467.563 660.493 467.554 660.448 467.554 660.403C467.554 660.357 467.563 660.312 467.581 660.27C467.598 660.228 467.624 660.189 467.656 660.157C467.689 660.125 467.727 660.099 467.769 660.082L467.738 660.097ZM460.754 624.52C460.497 624.949 459.813 624.965 458.727 624.941C458.073 627.13 457.622 627.881 456.548 625.202C454.992 625.401 454.135 625.537 455.049 624.222C455.329 623.839 455.654 623.492 456.019 623.188C455.341 620.861 455.609 620.696 457.661 621.952C458.171 621.537 458.773 621.252 459.418 621.122C459.976 621.166 459.535 622.103 459.315 622.936C459.711 623.286 461.027 624.123 460.786 624.505L460.754 624.52ZM373.447 559.617C372.425 560.589 371.15 561.252 369.769 561.532C368.387 561.811 366.954 561.695 365.635 561.197L365.918 561.064C371.418 557.352 369.383 555.32 371.746 552.362C372.177 552.542 371.85 552.581 377.016 550.601C377.062 553.96 375.779 557.2 373.447 559.617ZM374.765 543.644C374.71 544.703 374.991 545.752 375.568 546.642C375.672 546.861 375.926 547.969 376.245 548.97L372.724 550.288C372.65 550.131 372.372 543.777 372.292 543.2L374.425 542.193L374.765 543.644ZM369.973 535.124C369.72 540.194 372.305 548.183 369.769 547.77C368.773 547.394 367.958 546.655 367.486 545.701C366.53 543.939 365.93 542.006 365.72 540.012C365.382 537.974 365.498 535.886 366.057 533.898C366.616 531.909 367.606 530.068 368.956 528.505C370.317 535.69 370.106 534.025 370.032 535.249L369.973 535.124ZM374.47 538.794C374.275 537.082 373.943 534.592 373.581 531.308C373.885 530.896 374.083 531.071 375.239 532.137C377.124 533.933 374.805 541.86 374.805 541.86C374.689 540.801 374.619 539.76 374.529 538.92L374.47 538.794ZM437.383 442.564C434.179 464.456 429.487 475.807 419.984 489.161C410.551 501.817 399.552 513.229 387.252 523.123C382.483 527.487 383.663 542.088 377.812 545.543C377.122 545.869 376.651 546.092 376.475 544.256C376.034 539.667 379.606 533.988 376.368 530.951C375.915 530.479 375.409 530.061 374.859 529.707C374.411 529.417 373.876 529.29 373.346 529.347C373.237 528.631 373.005 526.515 372.637 523.542C373.121 522.699 373.549 522.305 375.924 518.803C383.885 507.06 382.686 493.312 386.8 477.975C388.87 469.657 392.099 461.672 396.393 454.254C396.73 453.749 396.168 454.591 394.383 441.388C393.357 433.775 392.499 425.623 392.242 423.211C392.387 423.166 392.54 423.154 392.69 423.176C392.84 423.198 392.983 423.254 393.109 423.339C394.651 424.491 395.887 427.514 397.422 428.976C400.921 432.159 402.464 424.944 406.242 423.275C409.379 421.792 411.084 425.4 414.651 424.828C417.33 424.407 419.001 421.852 421.687 421.849C426.875 425.383 432.423 428.358 438.237 430.724C438.385 434.729 438.119 438.739 437.442 442.689L437.383 442.564ZM457.121 434.467C444.417 432.165 432.351 427.176 421.732 419.833C414.7 414.942 407.581 409.133 397.464 390.887C398.143 390.408 398.797 389.894 399.423 389.347L403.046 395.311C407.738 396.294 412.498 396.919 417.285 397.18C417.285 397.18 421.748 413.531 443.002 427.245C453.312 434.041 457.18 434.592 457.18 434.592L457.121 434.467ZM534.567 447.384C538.363 453.957 549.79 494.227 551.344 499.71C551.302 499.753 551.271 499.804 551.251 499.859C551.231 499.915 551.223 499.974 551.228 500.034C550.909 498.303 555.071 525.389 558.05 533.076C558.332 533.673 558.199 533.39 565.757 535.499C568.333 536.239 577.082 538.592 578.27 540.295C578.641 540.708 578.883 541.22 578.966 541.769C574.761 540.124 570.281 539.297 565.765 539.333C565.679 539.323 565.592 539.347 565.524 539.401C565.456 539.455 565.412 539.534 565.402 539.62C565.391 539.706 565.416 539.793 565.47 539.861C565.524 539.929 565.602 539.973 565.688 539.983L569.208 540.853C572.566 541.379 575.852 542.285 579.004 543.555C579.061 544.488 578.401 544.877 577.481 545.042C576.71 543.411 567.689 542.837 564.793 542.555C564.359 542.53 564.282 543.18 564.716 543.206C568.727 543.536 572.687 544.317 576.523 545.533C576.586 548.266 572.016 546.473 558.792 547.156C556.372 547.202 553.97 547.587 551.658 548.301C551.506 548.36 551.377 548.466 551.291 548.604C551.204 548.742 551.163 548.904 551.175 549.066C551.278 550.015 552.142 549.569 556.314 551.09C557.163 551.333 557.971 551.701 558.711 552.183C556.936 553.293 554.828 553.746 552.753 553.463C551.099 553.216 549.549 552.504 548.284 551.409C547.02 550.315 546.092 548.883 545.611 547.281C544.662 543.892 547.012 540.824 544.407 538.64C541.801 536.455 530.599 519.566 528.992 517.14C514.378 495.223 515.458 494.098 514.71 494.221C499.265 461.53 500.241 460.915 499.19 459.339C499.027 458.994 469.202 414.061 468.961 413.714C471.032 412.736 473.589 414.33 475.639 415.664C478.608 417.561 480.881 418.636 483.78 416C486.68 413.364 488.217 409.145 490.821 406.534C493.425 403.922 495.621 404.266 499.56 403.748C501.175 403.755 502.747 403.23 504.034 402.254C505.32 401.279 506.251 399.907 506.68 398.35C509.99 391.222 506.884 391.308 520.128 390.423C521.951 399.886 528.353 426.028 528.437 426.448C529.434 433.692 531.5 440.747 534.567 447.384ZM467.858 412.355C465.817 414.405 463.912 416.587 462.156 418.887C461.623 419.139 461.403 419.242 460.95 418.689C457.858 414.662 444.183 356.15 471.691 340.698C484.265 333.683 504.251 352.755 514.042 363.326C520.353 370.004 526.17 377.132 531.448 384.653C534.696 390.065 513.105 387.256 508.855 390.607C507.18 391.935 507.089 393.936 505.458 397.469C503.827 401.003 502.447 401.655 499.662 401.934C496.116 401.722 492.624 402.878 489.905 405.163C487.142 407.926 485.7 412.023 482.864 414.629C480.47 416.873 478.673 415.343 475.887 413.589C473.101 411.835 470.462 410.473 467.799 412.229L467.858 412.355ZM528.598 419.886C527.456 414.056 524.678 402.166 521.068 390.056C524.488 389.822 532.098 389.604 533.252 386.603C533.406 386.119 533.44 385.605 533.351 385.106C533.262 384.606 533.053 384.136 532.741 383.735C528.476 377.65 523.814 371.853 518.786 366.381C507.986 354.406 485.492 332.22 471.302 340.037C442.6 356.13 456.325 415.155 459.612 419.513C459.788 419.81 460.029 420.062 460.318 420.251C460.607 420.44 460.935 420.56 461.277 420.602C461.62 420.644 461.967 420.607 462.293 420.494C462.619 420.381 462.914 420.194 463.157 419.949C464.738 418.665 466.36 415.519 468.43 413.889C471.472 419.436 475.718 426.717 481.738 435.885C475.462 436.303 469.161 436.199 462.902 435.574C448.541 430.664 435.862 421.793 426.328 409.985C423.163 406.142 420.42 401.97 418.146 397.541C425.346 398.031 432.571 398.015 439.769 397.495C439.889 397.487 440.005 397.451 440.108 397.39C440.211 397.328 440.299 397.243 440.363 397.142C440.427 397.041 440.467 396.926 440.478 396.806C440.49 396.687 440.473 396.566 440.429 396.454C437.388 387.049 437.213 376.953 439.927 367.448C442.786 357.965 448.606 349.647 456.536 343.713C456.667 343.623 456.766 343.494 456.82 343.344C456.874 343.195 456.88 343.033 456.838 342.88C456.795 342.727 456.706 342.591 456.582 342.491C456.458 342.391 456.307 342.332 456.148 342.323C448.239 341.673 440.3 341.465 432.367 341.7C427.399 341.731 422.451 342.319 417.613 343.451C417.358 340.709 416.777 338.007 415.884 335.403C420.898 329.772 454.408 318.737 474.69 306.431C477.828 304.704 480.789 302.675 483.533 300.372C502.513 290.753 542.648 300.728 553.021 308.875C563.394 317.022 568.847 330.757 564.86 352.942C561.059 373.734 531.727 415.3 528.57 419.746L528.598 419.886ZM643.894 442.899C641.763 427.096 628.783 417.494 624.422 414.68L644.925 404.303C648.346 404.622 651.55 406.12 653.989 408.541C657.758 412.11 660.855 416.327 663.133 420.991C658.24 426.719 649.216 437.429 643.835 442.773L643.894 442.899ZM664.082 419.507C661.738 414.993 658.538 410.978 654.66 407.687C652.005 405.326 648.639 403.918 645.094 403.686C645.711 401.751 646.723 399.966 648.067 398.444C648.541 399.448 648.326 402.159 649.904 401.682C651.482 401.205 650.957 399.688 651.645 398.787C651.932 398.421 652.671 398.034 652.742 398.998C652.814 399.962 652.702 401.512 653.942 402.269C654.769 402.643 655.7 402.719 656.576 402.483C656.764 402.394 655.924 403.865 656.054 405.032C656.084 405.309 656.219 405.562 656.433 405.741C656.646 405.919 656.919 406.008 657.197 405.989C658.456 405.893 659.803 403.952 661.512 404.564C662.22 404.844 662.191 405.433 661.758 406.06C660.745 407.652 661.061 408.807 662.958 409.331C663.859 409.482 664.732 409.768 665.547 410.18C664.558 410.639 663.75 411.412 663.247 412.379C663.152 412.564 663.1 412.769 663.096 412.977C663.092 413.185 663.137 413.391 663.226 413.579C663.315 413.767 663.446 413.933 663.609 414.062C663.772 414.191 663.963 414.281 664.166 414.325C665.138 414.595 667.129 414.422 667.757 414.777C666.733 416.478 665.476 418.028 664.023 419.382L664.082 419.507ZM691.881 379.816C693.071 385.664 670.807 411.648 669.244 413.537C668.321 412.477 666.063 412.815 664.965 412.604C665.621 411.718 667.467 411.077 667.294 409.815C667.12 408.554 663.813 407.891 662.907 407.436C663.204 406.682 664.688 404.868 663.025 403.542C662.333 403.076 661.511 402.84 660.677 402.869C659.843 402.897 659.039 403.189 658.381 403.703L657.91 403.925C658.185 402.721 658.781 401.058 657.39 400.794C655.999 400.53 655.664 401.609 654.642 400.826C657.8 399.794 660.44 399.046 662.515 398.564C662.582 398.544 662.644 398.509 662.696 398.462C662.749 398.415 662.79 398.358 662.818 398.294C662.846 398.229 662.86 398.16 662.858 398.09C662.857 398.02 662.84 397.951 662.81 397.888C663.403 399.143 658.507 391.055 662.488 387.947C664.378 386.797 666.522 386.129 668.731 386.002C670.939 385.876 673.145 386.294 675.155 387.22C675.271 387.277 675.402 387.3 675.531 387.286C675.66 387.273 675.783 387.223 675.886 387.143C676.943 386.375 685.641 379.848 690.167 379.437C690.591 379.198 691.709 379.207 691.822 379.691L691.881 379.816Z" fill="#A5A6F6"/>
</svg>
